<svg xmlns="http://www.w3.org/2000/svg" fill="none" viewBox="0 0 120 48" color="#000000" style="height: 3.6rem;" class="universalNavigation-module--logo--0f451"><g fill="#000000"><path d="M7.787 38.758H4.628V47H3.38v-8.242H.221v-1.092h7.566zm8.414-1.092h1.248V47H16.2v-4.277h-5.005V47H9.948v-9.334h1.248v3.965H16.2zm4.216 0h6.097v1.092h-4.862v2.873h4.121v1.092h-4.12v3.185h4.861V47h-6.097zm28.15 5.421V47H47.32v-9.334h3.562c1.976 0 3.237.923 3.237 2.704 0 1.755-1.261 2.717-3.237 2.717zm0-1.079h2.25c1.326 0 2.067-.585 2.067-1.638s-.741-1.625-2.067-1.625h-2.25zm7.242.325c0-2.847 1.794-4.81 4.238-4.81s4.225 1.963 4.225 4.81-1.781 4.81-4.225 4.81-4.238-1.963-4.238-4.81zm7.228 0c0-2.21-1.235-3.705-2.99-3.705s-2.99 1.495-2.99 3.705 1.235 3.705 2.99 3.705 2.99-1.495 2.99-3.705zm7.801-4.667h1.105l1.976 7.475 1.989-7.475h1.235L74.582 47H73.36l-1.989-7.267L69.395 47h-1.222l-2.574-9.334h1.287l1.989 7.475zm8.462 0h6.097v1.092h-4.862v2.873h4.12v1.092h-4.12v3.185h4.862V47H79.3zm9.89 5.421V47H87.94v-9.334h3.562c1.976 0 3.237.923 3.237 2.704 0 1.495-.91 2.405-2.392 2.652L94.935 47h-1.43l-2.509-3.913zm0-1.079h2.248c1.326 0 2.067-.585 2.067-1.638s-.74-1.625-2.067-1.625H89.19zm15.24 5.122c-2.106 0-3.666-1.248-3.666-3.822v-5.642h1.248v5.603c0 1.911 1.014 2.743 2.418 2.743 1.417 0 2.431-.832 2.431-2.743v-5.603h1.248v5.642c0 2.574-1.56 3.822-3.679 3.822zm7.725-4.043V47h-1.248v-9.334h3.562c1.976 0 3.237.923 3.237 2.704 0 1.755-1.261 2.717-3.237 2.717zm0-1.079h2.249c1.326 0 2.067-.585 2.067-1.638s-.741-1.625-2.067-1.625h-2.249zM56.785 5.994c.532.003 1.044-.205 1.426-.578s.602-.882.615-1.418a2.084 2.084 0 0 0-.604-1.446 2.058 2.058 0 0 0-1.437-.608 2.026 2.026 0 0 0-1.409.62c-.37.383-.577.899-.575 1.434.005.528.215 1.033.586 1.407s.873.585 1.398.59zM70.656 7.914h4.923v.393c-.273.048-.537.14-.781.271-.45.212-1.35 1.24-2.041 2.96-1.17 2.992-2.4 6.525-3.691 10.574l-.48 1.535c-.211.694-.391 1.147-.481 1.42s-.21.694-.42 1.207a6.78 6.78 0 0 1-.457 1.118c-.241.453-.692 1.382-1.052 1.661-.57.484-1.41 1.028-2.46.937-2.042 0-3.572-1.535-3.602-3.352 0-1.239.78-2.054 1.95-2.054.841 0 1.59.46 1.59 1.418 0 .696-.689 1.42-.689 1.783 0 .937.54 1.382 1.591 1.382.84 0 1.526-.544 2.04-1.63.691-1.24.75-2.599.18-4.11l-4.32-11.508c-.992-2.657-1.743-3.53-2.672-3.625v-.393h6.812v.393c-.81.091-1.23.575-1.23 1.45 0 .634.24 1.601.69 2.84l.81 2.234c.93 2.417 1.678 4.531 2.072 5.861.87-2.748 1.678-5.165 2.46-7.28.571-1.57.841-2.688.841-3.353 0-1.177-.63-1.72-1.59-1.72zM23.263 22.625c-.87-.154-1.62-.937-1.62-2.598V0L16.69 1.087v.424c.84-.09 1.678.663 1.678 2.265v16.25c0 1.571-.84 2.477-1.678 2.599a2.62 2.62 0 0 1-1.49-.194c-.665-.292-1.22-.812-1.69-1.59l-2.288-3.684a4.22 4.22 0 0 0-2.046-1.707 4.188 4.188 0 0 0-2.653-.136l2.581-2.87c1.95-2.173 3.752-3.563 5.462-4.137v-.393H8.888v.393c1.471.574 1.381 1.842-.305 3.838l-3.63 4.258V0L0 1.087v.424c.84 0 1.678.844 1.678 2.325v16.19c0 1.783-.81 2.477-1.678 2.599v.393h6.579v-.393c-1.08-.154-1.62-.997-1.62-2.598v-2.99l1.409-1.57 3.414 5.647c.81 1.36 1.561 1.904 2.762 1.904H23.97v-.307s-.327-.023-.708-.086zM36.896 20.715v-6.756c-.065-4.418-1.905-6.43-6.12-6.43a5.968 5.968 0 0 0-3.72 1.27c-1.11.845-1.651 1.812-1.651 2.93 0 1.087.6 1.903 1.59 1.903 1.05 0 1.802-.604 1.802-1.45 0-.634-.421-1.51-.421-2.114 0-1.089.811-2.025 2.22-2.025 1.803 0 3.092 1.36 3.092 4.38v1.812l-1.5.362c-.781.154-1.44.308-1.951.461-.511.154-1.17.362-1.951.663-1.561.605-2.4 1.18-3.122 2.267a3.183 3.183 0 0 0-.54 1.782c0 2.506 1.74 3.655 4.173 3.655 1.92 0 3.966-1.028 4.89-2.96.014.609.16 1.208.426 1.756 1.018 2.073 4.388.847 4.388.847v-.393c-1.475.232-1.597-1.534-1.605-1.96zm-3.204-2.092c0 .997-.36 1.812-1.08 2.386-.69.575-1.41.877-2.16.877-1.47 0-2.432-.967-2.432-2.75 0-.844.458-1.63.84-2.084.304-.312.66-.568 1.052-.755.51-.272.763-.411 1.11-.574l1.374-.513c.69-.272 1.109-.422 1.289-.513zM100 7.914H88.327V0H100l-2.45 3.957zM76.273 21.095a7.962 7.962 0 0 1-2.225-5.627 7.86 7.86 0 0 1 .555-3.024 7.82 7.82 0 0 1 1.67-2.574c1.473-1.572 3.276-2.36 5.381-2.36 2.074 0 3.879.788 5.35 2.36a7.72 7.72 0 0 1 1.695 2.568 7.76 7.76 0 0 1 .56 3.03c.016 1.042-.176 2.076-.563 3.042s-.962 1.845-1.691 2.585c-1.472 1.536-3.277 2.33-5.35 2.33-2.106 0-3.91-.787-5.381-2.33zm8.086-10.973c-.593-1.169-1.373-1.854-2.288-2.038-1.857-.376-3.498 1.545-4.11 4.599a14.59 14.59 0 0 0-.188 4.16 11.584 11.584 0 0 0 1.132 3.991c.595 1.17 1.373 1.854 2.289 2.038 1.856.376 3.545-1.626 4.162-4.71.51-2.579.251-5.719-1.004-8.042z"></path><path d="M58.525 20.027V7.914H47.96v.363c1.411.212 2.083 1.284 1.442 3.022-3.302 9.032-3.091 8.626-3.302 9.35-.21-.695-.69-2.404-1.47-4.547s-1.291-3.565-1.502-4.2c-.81-2.507-.54-3.443.782-3.594v-.393h-6.844v.393c1.02.212 1.92 1.39 2.67 3.504l1.052 2.748c1.155 2.97 2.511 7.063 2.964 8.46h2.275c.732-2.15 3.67-10.729 4.064-11.601.425-.994.905-1.746 1.442-2.266a2.677 2.677 0 0 1 2.035-.857s1.65 0 1.65 1.601v10.13c0 1.688-.81 2.476-1.651 2.597v.394h6.543v-.394c-.865-.12-1.585-.905-1.585-2.597z"></path></g><path fill="#ef6351" d="M44 38H31v9h13l-2.6-4.5L44 38z"></path></svg>