<svg width="302" height="80" viewBox="0 0 302 80" fill="none" xmlns="http://www.w3.org/2000/svg">
    <path d="M8 46.6418C8 37.6858 13.3333 32.4531 23.5975 32.4531C31.7484 32.4531 36.6793 35.7739 38.6918 42.516C38.8931 43.1198 38.6918 43.5223 38.1887 43.7236L36.9811 44.1261C36.3774 44.3273 36.0755 44.1261 35.7736 43.5223C34.0629 37.7865 30.5409 35.2707 23.4969 35.2707C15.3459 35.2707 11.1195 39.3965 11.1195 46.4406V57.8116C11.1195 64.8557 15.5472 69.0821 23.4969 69.0821C30.4402 69.0821 34.2642 66.2645 35.8742 60.428C36.0755 59.8242 36.478 59.623 37.0818 59.8242L38.3899 60.2267C38.9937 60.428 39.0943 60.9311 38.8931 61.4343C36.7799 68.4783 31.5472 72.0003 23.4969 72.0003C13.434 72.0003 8.10063 66.7676 8.10063 57.8116V46.6418H8Z" fill="#878787"/>
    <path d="M41.9119 45.3336C41.9119 37.4846 47.9496 32.4531 57.5094 32.4531C67.1697 32.4531 73.2075 37.3839 73.2075 45.3336V59.2204C73.2075 67.0695 67.1697 72.0003 57.5094 72.0003C47.9496 72.0003 41.9119 67.0695 41.9119 59.2204V45.3336ZM70.088 45.233C70.088 39.0946 65.1572 35.2707 57.5094 35.2707C49.9622 35.2707 45.0314 39.0946 45.0314 45.233V59.2204C45.0314 65.2582 49.9622 69.1827 57.5094 69.1827C65.1572 69.1827 70.088 65.3588 70.088 59.2204V45.233Z" fill="#878787"/>
    <path d="M115.17 32.4532C123.723 32.4532 128.05 36.9815 128.05 46.0381V70.0884C128.05 70.6922 127.748 70.994 127.145 70.994H125.736C125.132 70.994 124.83 70.6922 124.83 70.0884V46.1387C124.83 38.7928 121.711 35.3714 114.767 35.3714C110.843 35.3714 107.019 36.3777 103.396 38.3903C104.604 40.4029 105.107 42.9186 105.107 46.0381V70.0884C105.107 70.6922 104.805 70.994 104.201 70.994H102.792C102.189 70.994 101.887 70.6922 101.887 70.0884V46.1387C101.887 38.8934 98.4654 35.3714 91.522 35.3714C88.3019 35.3714 85.4843 35.9752 82.9686 37.0821C81.9623 37.5852 81.4591 38.3903 81.4591 39.5978V69.9878C81.4591 70.5915 81.1572 70.8934 80.6541 70.8934H79.1447C78.5409 70.8934 78.239 70.5915 78.239 69.9878V38.7928C78.239 36.4783 78.9434 35.6733 81.0566 34.667C84.3774 33.1576 88 32.3525 91.8239 32.3525C96.151 32.3525 99.3711 33.5601 101.585 35.8746C105.912 33.5601 110.34 32.4532 115.17 32.4532Z" fill="#878787"/>
    <path d="M165.384 16.8555C166.792 16.8555 167.094 17.258 167.094 18.5662V21.0819C167.094 22.4907 166.692 22.8932 165.384 22.8932H153.207C146.264 22.8932 143.748 25.3083 143.748 31.8492V33.258H165.283C166.692 33.258 166.994 33.6605 166.994 34.9687V69.1825C166.994 70.5913 166.591 70.8932 165.283 70.8932H162.163C160.755 70.8932 160.453 70.4907 160.453 69.1825V39.2957H143.748V69.1825C143.748 70.5913 143.346 70.8932 141.937 70.8932H139.019C137.61 70.8932 137.207 70.4907 137.207 69.1825V39.2957H131.673C130.465 39.2957 129.962 38.7926 129.962 37.585V35.0693C129.962 33.8618 130.365 33.3586 131.673 33.3586H137.207V31.9498C137.207 21.4844 142.138 16.9561 153.207 16.9561H165.384V16.8555Z" fill="#5A9E33"/>
    <path d="M189.233 32.1514C199.094 32.1514 204.025 36.9815 204.025 46.6419V69.1828C204.025 70.5916 203.522 70.8935 202.314 70.8935H199.195C197.987 70.8935 197.484 70.491 197.484 69.1828V46.8432C197.484 41.1073 194.365 38.1891 188.327 38.1891C185.409 38.1891 182.591 38.5916 179.874 39.4973C179.27 39.6985 178.968 40.2017 178.968 40.8054V69.2834C178.968 70.6922 178.566 70.9941 177.258 70.9941H174.138C172.931 70.9941 172.427 70.491 172.427 69.2834V38.7929C172.427 36.4784 172.931 35.6734 175.245 34.6671C179.27 32.9564 184 32.1514 189.233 32.1514Z" fill="#5A9E33"/>
    <path d="M207.95 46.1388C207.95 37.3841 214.088 32.1514 224.352 32.1514C234.818 32.1514 240.755 37.3841 240.755 46.1388V58.013C240.755 66.6671 234.717 72.0004 224.352 72.0004C214.088 72.0004 207.95 66.7677 207.95 58.013V46.1388ZM234.315 46.1388C234.315 41.1073 230.591 38.0885 224.352 38.0885C218.214 38.0885 214.491 41.1073 214.491 46.1388V58.1136C214.491 63.1451 218.214 66.1639 224.352 66.1639C230.591 66.1639 234.315 63.1451 234.315 58.1136V46.1388Z" fill="#5A9E33"/>
    <path d="M292.075 42.012C293.082 42.012 293.484 42.7164 293.082 43.622L288.755 52.2761C288.453 52.8799 287.648 53.383 286.943 53.383H281.811C278.39 53.383 275.27 52.4774 272.553 50.8673C268.931 48.4522 266.516 44.8296 266.516 40.7038C266.516 33.5591 273.157 27.7227 281.811 27.7227C277.887 27.7227 274.667 30.9428 274.667 34.8673C274.667 38.7918 277.887 42.012 281.811 42.012H292.075V42.012Z" fill="url(#paint0_linear_962_1692)"/>
    <path d="M263.195 34.8673C263.195 24.6031 271.547 16.3516 281.711 16.3516H292.076C293.082 16.3516 293.484 17.056 293.082 17.9616L288.755 26.6157C288.453 27.2195 287.648 27.7226 286.944 27.7226H281.811C273.157 27.7226 266.516 33.5591 266.516 40.7038C266.516 44.8296 268.83 48.5528 272.554 50.8673C266.918 47.7478 263.195 41.7101 263.195 34.8673Z" fill="url(#paint1_linear_962_1692)"/>
    <path d="M254.44 8H253.434V60.5283H254.44V8Z" fill="#878787"/>
    <defs>
        <linearGradient id="paint0_linear_962_1692" x1="289.45" y1="57.9979" x2="270.457" y2="29.1752" gradientUnits="userSpaceOnUse">
            <stop stop-color="#DEDC00"/>
            <stop offset="0.2151" stop-color="#95C11F"/>
            <stop offset="1" stop-color="#00663A"/>
        </linearGradient>
        <linearGradient id="paint1_linear_962_1692" x1="267.644" y1="39.354" x2="305.042" y2="0.134689" gradientUnits="userSpaceOnUse">
            <stop stop-color="#DEDC00"/>
            <stop offset="0.2151" stop-color="#95C11F"/>
            <stop offset="0.4162" stop-color="#5A9E33"/>
            <stop offset="1" stop-color="#5A9E33"/>
        </linearGradient>
    </defs>
</svg>