<?xml version="1.0" encoding="UTF-8"?>
<!-- Generator: Adobe Illustrator 27.4.1, SVG Export Plug-In . SVG Version: 6.00 Build 0)  -->
<svg version="1.1" id="Warstwa_1" xmlns="http://www.w3.org/2000/svg" xmlns:xlink="http://www.w3.org/1999/xlink" x="0px" y="0px" viewBox="0 0 686 179" style="enable-background:new 0 0 686 179;" xml:space="preserve">
<style type="text/css">
	.st0{fill:#812A84;}
</style>
<path d="M0,22c11,0,22,0,33,0c0.5,0,1.3-0.3,1.1,0.8c0,0-0.1,0-0.1,0.1c0,0.1,0,0.2,0.1,0.2c0,11.5,0,23.1,0,34.6  c0,30.6,0,61.1,0,91.7c0,2.2,0.1,4.5,0.1,6.7l-0.1,0.1l0.1,0.1c0,1.3,0,1.3-1.3,1.3c-10.8,0-21.5,0-32.3-0.1c-0.2,0-0.4,0-0.6,0.1  C0,112.3,0,67.2,0,22z"/>
<path d="M207,144.5c-4.4,5.4-9.4,10.1-16.2,12.5c-3.8,1.3-7.8,1.9-11.9,2.1c-4.2,0.2-8.3,0.3-12.4-0.6c-11.2-2.6-18.1-9.6-20.7-20.7  c-1.4-6-1.6-12-0.4-18.1c1.6-7.7,5.9-13.5,12.7-17.3c5.3-3,10.9-4.8,16.9-5.8c7.7-1.2,15.5-1.5,23.3-1.5c1.8,0,3.7-0.1,5.5-0.5  c0.3,0,0.3-0.2,0.2-0.4c-0.1-1.6-0.2-3.2-0.6-4.8c-1.2-4.8-4.3-7.4-9.4-8c-3.6-0.4-7.1,0.2-10.5,0.9c-6.1,1.2-11.9,3.4-17.7,5.8  c-1.3,0.6-1.3,0.6-1.9-0.7c-2.8-6.3-5.6-12.7-8.3-19c-0.3-0.6-0.6-1.3-0.9-1.9c0.1-0.1,0.1-0.1,0-0.2c1.6-1.2,3.4-1.7,5.2-2.4  c6.7-2.8,13.6-4.4,20.8-5.4c5.8-0.8,11.6-1.2,17.4-1.2c6.7,0,13.3,0.8,19.5,3.4c10.5,4.3,17,12,19.4,23.1c0.8,3.6,1,7.2,1,10.8  c0,20.5,0,41.1,0,61.6c0,0.2,0,0.4,0,0.6c0,0.6-0.2,0.9-0.8,0.8c-0.4,0-0.7,0-1.1,0c-6.9,0-13.8,0-20.7,0c-0.9,0-1.3-0.3-1.7-1.1  c-1.8-3.7-3.9-7.3-5.6-11.1c-0.2-0.3-0.3-0.7-0.6-1c0-0.2-0.1-0.2-0.3-0.2C207.1,144.1,207,144.3,207,144.5z M179.8,129.2  c0.9,3.5,3.4,5.3,6.9,5.7c2.6,0.3,5.3,0.2,7.8-0.7c4.7-1.7,8-4.8,9.2-9.8c0.8-3.5,0.3-7.1,0.4-10.7c0-0.3-0.2-0.4-0.5-0.3  c-2.4,0.3-4.8,0.3-7.2,0.4c-2.8,0.1-5.6,0.4-8.2,1.2c-4.4,1.4-7.6,4.1-8.5,8.8c-0.3,1.7-0.2,3.5,0.2,5.2L179.8,129.2L179.8,129.2z"/>
<path d="M109.1,117.4c-9.7,0-19.4,0-29.1,0c-1,0-1,0-1,1c0.6,7.9,5.9,13.4,12.8,15.4c3.8,1.1,7.6,1.3,11.5,1.1  c4.2-0.2,8.3-0.5,12.4-1.4c5.9-1.3,11.5-3.2,16.9-5.8c0.7-0.4,0.8-0.3,0.8,0.5c0,1,0,2.1,0,3.1c0,6.3,0,12.6,0,18.9  c0,1.3-0.3,2-1.6,2.6c-7.9,3.6-16.1,5.5-24.8,6.1c-5.5,0.4-10.9,0.5-16.4,0.2c-8-0.4-15.7-2.2-22.9-5.9  c-10.7-5.6-17.5-14.3-20.9-25.8c-2.2-7.6-2.8-15.3-2.3-23.1c0.3-5.4,1-10.7,2.6-15.9C50.3,78,56,69.6,65.3,63.9  c4.7-2.9,9.8-4.7,15.2-5.7c6.5-1.2,13-1.5,19.5-0.8c5.6,0.5,11,1.6,16.2,3.8c11.2,4.8,18.2,13.2,21.5,24.8c1.3,4.7,1.9,9.5,2,14.4  c0,5.2,0,10.4,0,15.6c0,1.4,0,1.4-1.4,1.4C128.6,117.5,118.9,117.5,109.1,117.4C109.1,117.5,109.1,117.5,109.1,117.4z M95.7,80.4  c-7.2,0.1-11.7,2.5-14.3,8.1c-0.9,2.1-1.3,4.3-1.6,6.5c-0.1,0.6,0,0.9,0.7,0.9c2.4-0.1,4.7,0,7.1,0c6.7,0,13.5,0,20.2,0  c1,0,1,0,0.9-1c-0.1-0.7-0.2-1.5-0.3-2.2c-0.5-2.6-1.4-5.1-3.1-7.3C102.6,81.8,98.9,80.3,95.7,80.4z"/>
<path d="M368.2,118c0.2,1,0.3,2,0.5,3l0,0.1l0.1,0.1c1.9,7.7,8.5,12.4,15.6,13.3c10.2,1.2,20-0.2,29.7-3.6c2.8-1,5.5-2,8.1-3.4  c0.1,0,0.2,0,0.4,0c0,0.1,0,0.2,0.1,0.2c0,7.6,0,15.2,0.1,22.7c0,1.1-0.3,1.6-1.3,2.1c-6.4,2.9-13,4.9-20,5.7  c-7.1,0.9-14.3,1-21.4,0.7c-9.5-0.5-18.5-2.8-26.6-8.1c-8.1-5.4-13.6-12.8-16.6-21.9c-2-6.1-2.9-12.4-2.8-18.8  c0.1-3.5-0.1-6.9,0.3-10.4c1.1-10.1,4-19.4,10.5-27.4c4.8-5.9,11-9.8,18.1-12.3c4.9-1.7,10-2.4,15.2-2.8c4.9-0.4,9.7-0.1,14.4,0.6  c10.1,1.4,19.2,5.1,26.2,12.8c4.5,5.1,7.4,11,8.8,17.6c1,4.7,1.5,9.4,1.5,14.1c0,4.4,0,8.8,0,13.2c0,1.8,0,1.8-1.8,1.8  c-9.4,0-18.8,0-28.2,0c-10.2,0-20.3,0-30.5,0c-0.1-0.2-0.3-0.2-0.3,0C368,117.7,368,117.9,368.2,118z M383.3,95.9  C383.3,95.9,383.3,95.9,383.3,95.9c4.6,0,9.2,0,13.9,0.1c0.6,0,0.8-0.1,0.8-0.7c0-0.8-0.1-1.6-0.3-2.4c-0.5-3.3-1.8-6.3-4.2-8.7  c-2.7-2.7-6-3.7-9.7-3.7c-9-0.1-14.1,6-14.9,14.8c0,0.4-0.1,0.8,0.6,0.7C374.2,95.9,378.8,95.9,383.3,95.9z"/>
<path d="M283.1,84c0.1,1.8,1,3.2,2.6,4.2c2.4,1.5,5,2.5,7.5,3.6c5.3,2.3,10.8,4.2,15.9,6.7c3.8,1.9,7.4,3.9,10.6,6.8  c4.3,3.9,7,8.8,7.9,14.6c0.8,5.1,0.9,10.2-0.2,15.3c-1.9,9.1-7.4,15.4-15.7,19.4c-5.4,2.5-11.1,3.7-16.9,4.3  c-7.1,0.6-14.1,0.4-21.2-0.1c-7.4-0.5-14.6-2.1-21.6-4.6c-0.8-0.3-1-0.7-1-1.5c0-6.2,0-12.4,0-18.6c0-2,0-4-0.1-6c0-0.3,0-0.6,0-0.9  c0-0.6,0.2-0.7,0.8-0.5c1.8,0.8,3.7,1.5,5.6,2.2c5.6,1.9,11.3,3.5,17.2,4.6c1.2,0.2,2.5,0.4,3.7,0.5l0.1,0.1l0.1,0  c3.4,0.4,6.7,0.4,10.1,0.3c1.6,0,3.2-0.4,4.7-1c3.4-1.4,4-4.7,1.4-7.3c-0.8-0.8-1.8-1.4-2.9-2c-4.8-2.5-9.8-4.5-14.8-6.5  c-5.4-2.1-10.6-4.6-15.3-8.1c-5.5-4.1-8.8-9.5-10.2-16.2c-1-5-1-9.9,0.3-14.8c1.8-6.6,5.9-11.4,11.6-15c4.3-2.7,9.1-4.2,14.1-5.1  c4.9-0.9,9.9-1.4,14.9-1.3c6.3,0.1,12.6,0.9,18.7,2.5c5.3,1.4,10.5,3.4,15.6,5.4c0.8,0.3,0.8,0.7,0.5,1.4c-1,2.4-2.1,4.8-3.1,7.2  c-1.7,4.1-3.5,8.3-5.2,12.4c-0.1,0.3-0.3,0.6-0.4,0.9c-0.2,0.5-0.4,0.6-0.9,0.4c-6.7-3-13.6-5.3-20.8-6.6c-3.1-0.6-6.3-0.9-9.4-0.1  c-1.9,0.4-3.6,1.1-4.1,3.3c0,0-0.1,0-0.1,0.1C283,83.9,283.1,84,283.1,84z"/>
<path class="st0" d="M602,89.8c0-22,0-44.1,0-66.1c0-0.3,0-0.7,0-1c0-0.5,0.1-0.7,0.6-0.7c2.6,0,5.2,0,7.7,0c0.5,0,0.7,0.2,0.6,0.7  c0,0.3,0,0.6,0,0.9c0,20.6,0.1,41.2-0.1,61.9c0,5.9-0.2,11.7-0.4,17.6c-0.1,3.9-0.1,7.8-0.3,11.7c0,0.3-0.2,0.6,0.1,0.8  c0.3,0.1,0.5-0.2,0.7-0.3c1.4-1.2,2.5-2.7,3.7-4c7.5-8.2,15.1-16.5,22.6-24.7c6.3-6.9,12.5-13.8,18.8-20.7c0.5-0.6,1.1-1,1.5-1.6  c0.7-1.1,1.7-1.4,3-1.3c2.6,0.1,5.2,0.1,7.7,0.1c0.2,0,0.5-0.1,0.7,0.2c0.1,0.2-0.1,0.4-0.2,0.5c-0.5,0.7-1.1,1.4-1.7,2  c-6.6,7.1-13.2,14.3-19.7,21.4c-4,4.3-8,8.7-12,13c-0.8,0.9-1.6,1.7-2.5,2.4c-0.6,0.5-0.7,0.9-0.2,1.5c2.6,3.4,5.1,6.9,7.7,10.3  c4.9,6.6,9.8,13.1,14.7,19.7c2.5,3.5,5.2,6.8,7.8,10.2c2.8,3.8,5.7,7.6,8.5,11.4c0.2,0.2,0.4,0.5,0.5,0.7c0.2,0.3,0.6,0.6,0.5,0.9  c-0.2,0.4-0.7,0.2-1,0.2c-2.5,0-5,0-7.5,0.1c-1.2,0-2-0.4-2.8-1.4c-4.5-6.2-9.1-12.3-13.7-18.4c-6.6-8.8-13.2-17.6-19.8-26.4  c0,0-0.1-0.1-0.1-0.1c-1-1.4-1.1-1.4-2.4-0.2c-4.2,3.8-8.3,7.7-12.5,11.5c-1.1,1-1.6,2-1.5,3.4c0.1,10,0,19.9,0,29.9  c0,0.3,0,0.7,0,1c0,0.5-0.2,0.8-0.8,0.8c-2.5,0-5.1,0-7.6,0c-0.5,0-0.7-0.2-0.6-0.7c0-0.2,0-0.5,0-0.7C602,134,602,111.9,602,89.8z"/>
<path class="st0" d="M506,110.2c0-15.3,0-30.7,0-46c0-1.4,0-1.4,1.4-1.4c1.6,0,3.2,0,4.9-0.1c1.1,0,1.3,0.1,1.4,1.2  c0.2,1.7,0.3,3.4,0.5,5.1c0.2,2.2,0.5,4.4,0.8,6.6c0,0.1,0,0.3,0.1,0.3c0.2,0,0.3-0.1,0.4-0.3c1.2-1.7,2.5-3.4,4-4.9  c3.4-3.4,7.4-5.8,11.9-7.3c7-2.3,14.1-2.9,21.4-2.3c4.5,0.4,8.8,1.3,12.8,3.4c6.6,3.4,10.7,8.8,12.8,15.9c1.5,4.9,2,9.8,2,14.9  c0,18.3,0,36.6,0,54.9c0,2.1,0,4.2,0,6.2c0,0.8-0.3,1.1-1.1,1.1c-2.2,0-4.4,0-6.6,0c-1.1,0-1.1,0-1.1-1.1c0-0.7,0-1.4,0-2.1  c0-20.1,0-40.2,0-60.2c0-4.6-0.9-9.1-2.6-13.4c-1.9-4.7-5.6-7.8-10.2-9.7c-2.7-1.1-5.5-1.5-8.4-1.8c-1.5-0.1-3-0.3-4.5-0.2  c-4.5,0.3-9,0.8-13.2,2.3c-5.8,2-10.4,5.7-13.5,11.1c-2.1,3.6-3.1,7.6-3.8,11.7c-0.7,4.5-0.8,9.1-0.8,13.7c0,16.2,0,32.3,0,48.5  c0,1.3,0,1.3-1.3,1.3c-2,0-4.1,0-6.1,0.1c-1.3,0-1.3,0-1.3-1.2c0-2.6,0-5.2,0-7.7C506,135.8,506,123,506,110.2z"/>
<path class="st0" d="M452,89.8c0,22,0,44.1,0,66.1c0,1.9,0.1,1.7-1.8,1.7c-2,0-3.9,0-5.9,0c-1.1,0-1.1,0-1.1-1.1  c0-11.7,0-23.4,0-35.1c0-32.6,0-65.1,0-97.7c0-1.7-0.3-1.6,1.6-1.6c2.1,0,4.2,0,6.4,0c0.6,0,0.9,0.2,0.8,0.8c0,0.2,0,0.5,0,0.7  C452,45.6,452,67.7,452,89.8z"/>
<path class="st0" d="M474.5,110.3c0-15.4,0-30.7,0-46.1c0-1.4,0-1.3,1.4-1.4c2,0,4.1,0,6.1,0c1.5,0,1.5,0,1.5,1.5  c0,11.3,0,22.7,0,34c0,19.4,0,38.7,0,58.1c0,1.2,0,1.2-1.1,1.2c-2.3,0-4.6,0-6.9,0c-1,0-1.1-0.1-1.1-1.1  C474.4,141.1,474.4,125.7,474.5,110.3C474.4,110.3,474.5,110.3,474.5,110.3z"/>
<path class="st0" d="M473.4,37c0-2,0.1-3.8,0.8-5.4c0.9-2.2,2.3-3.2,4.7-3.2c2.3,0,4.1,1.1,4.9,3.1c1.3,3.3,1.3,6.7,0.1,10.1  c-0.6,1.8-1.9,3-3.8,3.5c-2.1,0.6-4.3-0.3-5.5-2.2C473.5,40.9,473.5,38.8,473.4,37z"/>
<path class="st0" d="M368.2,118c-0.2-0.1-0.2-0.3-0.1-0.5c0.1-0.2,0.2-0.2,0.3,0C368.4,117.7,368.3,117.9,368.2,118z"/>
<path class="st0" d="M207,144.5c0-0.2,0-0.3,0.2-0.4c0.1,0,0.2,0.1,0.3,0.2C207.4,144.4,207.2,144.4,207,144.5z"/>
<path class="st0" d="M204,94.1c0.1,0.2,0.1,0.4-0.2,0.4C203.8,94.3,203.9,94.2,204,94.1z"/>
<path class="st0" d="M283.1,84c0-0.1,0-0.1-0.1-0.2c0,0,0,0,0.1-0.1C283.1,83.8,283.1,83.9,283.1,84C283.2,84,283.1,84,283.1,84z"/>
<polygon class="st0" points="368.8,121.2 368.7,121.2 368.8,121.1 368.8,121.1 "/>
<path class="st0" d="M154.7,66.1c0,0.1,0,0.2,0,0.2C154.5,66.2,154.5,66.1,154.7,66.1z"/>
<path class="st0" d="M422.7,127.7c-0.1,0-0.2-0.1-0.1-0.2C422.7,127.5,422.7,127.6,422.7,127.7z"/>
<polygon class="st0" points="278.2,134 278.1,134 278,134 278.1,133.9 "/>
<path class="st0" d="M34.1,23.1c-0.1,0-0.1-0.1-0.1-0.2c0,0,0.1,0,0.1-0.1C34.2,22.9,34.2,22.9,34.1,23.1C34.2,23,34.2,23,34.1,23.1  z"/>
<polygon class="st0" points="34.2,156.2 34.2,156.1 34.2,156.1 34.3,156.1 "/>
<polygon class="st0" points="179.8,129.1 179.8,129.1 179.8,129.2 179.7,129.2 "/>
</svg>