<svg id="a" height="512" viewBox="0 0 60 60" width="512" xmlns="http://www.w3.org/2000/svg"><path d="m16 60c5.514 0 10-4.486 10-10 0-.316-.019-.629-.047-.938l4.078-7.088 4.025 6.982c-.036.343-.055.691-.055 1.044 0 5.514 4.486 10 10 10s10-4.486 10-10-4.486-10-10-10c-.031 0-.062.004-.093.005-1.501-.531-3.083-1.405-4.549-3.963l-2.955-5.143 9.154-15.91c2.613-4.544 2.071-10.268-1.349-14.241-.433-.507-1.096-.803-1.792-.736-.658.064-1.243.444-1.562 1.01l-10.814 18.803-10.82-18.797c-.323-.573-.91-.953-1.567-1.017-.677-.068-1.343.217-1.791.736-3.42 3.974-3.962 9.697-1.349 14.241l9.155 15.914-2.955 5.138c-1.478 2.566-3.064 3.438-4.568 3.966-.049 0-.096-.007-.146-.007-5.514 0-10 4.486-10 10s4.486 10 10 10zm36-10c0 4.411-3.589 8-8 8s-8-3.589-8-8 3.589-8 8-8 8 3.589 8 8zm-14.377-12.962c.974 1.698 2.021 2.788 3.06 3.54-2.677.946-4.837 2.992-5.92 5.601l-3.579-6.208 4.065-7.065 2.374 4.133zm-21.376-23.046c-2.17-3.775-1.744-8.52 1.053-11.847.062-.038.145-.08.184-.125l11.403 19.811-4.065 7.068-8.575-14.906zm6.2 23.047 20.203-35.019c3.094 3.674 3.238 8.381 1.173 11.972l-18.559 32.258c-1.068-2.628-3.223-4.696-5.904-5.656 1.047-.752 2.102-1.845 3.087-3.555zm-6.447 4.961c4.411 0 8 3.589 8 8s-3.589 8-8 8-8-3.589-8-8 3.589-8 8-8z"/><path d="m16 56c3.309 0 6-2.691 6-6s-2.691-6-6-6-6 2.691-6 6 2.691 6 6 6zm0-10c2.206 0 4 1.794 4 4s-1.794 4-4 4-4-1.794-4-4 1.794-4 4-4z"/><path d="m38 50c0 3.309 2.691 6 6 6s6-2.691 6-6-2.691-6-6-6-6 2.691-6 6zm10 0c0 2.206-1.794 4-4 4s-4-1.794-4-4 1.794-4 4-4 4 1.794 4 4z"/><circle cx="30" cy="31" r="1"/></svg>