<svg xmlns="http://www.w3.org/2000/svg" version="1.1" xmlns:xlink="http://www.w3.org/1999/xlink" width="512" height="512" x="0" y="0" viewBox="0 0 512 512" style="enable-background:new 0 0 512 512" xml:space="preserve" class=""><g><path d="M511.999 305.345C511.999 419.293 419.296 512 305.35 512H122.11c-11.981 0-21.695-9.712-21.695-21.695s9.714-21.695 21.695-21.695h183.24c90.023 0 163.259-73.237 163.259-163.257 0-90.025-73.237-163.261-163.259-163.261H74.07l61.667 61.665c8.47 8.47 8.472 22.207 0 30.678-4.237 4.237-9.788 6.356-15.341 6.356s-11.104-2.119-15.341-6.356l-98.7-98.698a21.692 21.692 0 0 1 0-30.678l98.7-98.703c8.475-8.475 22.207-8.475 30.682 0 8.47 8.47 8.472 22.207 0 30.678L74.07 98.703h231.28c113.946 0 206.649 92.698 206.649 206.642z" fill="#000000" opacity="1" data-original="#000000" class=""></path></g></svg>