<svg id="Layer_1" enable-background="new 0 0 33 33" height="33" viewBox="0 0 33 33" width="33" xmlns="http://www.w3.org/2000/svg"><g fill="#3c3c3b"><circle cx="16.502" cy="16.501" r="7"/><path d="m17.887 5.125c0 .765-.621 1.384-1.385 1.384-.765 0-1.385-.619-1.385-1.384v-3.24c0-.766.62-1.385 1.385-1.385.764 0 1.385.619 1.385 1.385z"/><path d="m9.437 7.479c.539.539.539 1.416-.002 1.957-.54.539-1.416.541-1.957 0l-2.291-2.29c-.541-.542-.541-1.418 0-1.96.541-.54 1.416-.541 1.958 0z"/><path d="m5.125 15.115c.763 0 1.382.621 1.384 1.385-.002.764-.619 1.385-1.385 1.385h-3.238c-.766 0-1.386-.621-1.386-1.385 0-.766.619-1.385 1.385-1.385z"/><path d="m7.477 23.564c.54-.539 1.417-.539 1.958 0 .539.541.541 1.418 0 1.959l-2.29 2.291c-.542.541-1.419.54-1.958 0-.541-.542-.543-1.416 0-1.958z"/><path d="m15.115 27.877c.002-.765.621-1.385 1.385-1.385.764.001 1.385.62 1.387 1.385v3.238c-.002.768-.623 1.386-1.385 1.385-.767.001-1.385-.617-1.385-1.385z"/><path d="m23.566 25.523c-.541-.541-.541-1.418 0-1.958.539-.538 1.418-.54 1.957-.001l2.291 2.29c.543.544.539 1.421 0 1.96-.541.541-1.416.541-1.959 0z"/><path d="m27.877 17.885c-.766 0-1.385-.619-1.385-1.385.002-.762.621-1.385 1.383-1.385h3.24c.768 0 1.385.623 1.385 1.385 0 .767-.617 1.385-1.385 1.385z"/><path d="m25.523 9.436c-.541.541-1.418.541-1.957 0-.539-.54-.541-1.418-.002-1.957l2.291-2.292c.543-.542 1.418-.539 1.957 0 .543.543.543 1.417 0 1.959z"/></g></svg>