<svg xmlns="http://www.w3.org/2000/svg" version="1.1" xmlns:xlink="http://www.w3.org/1999/xlink" width="512" height="512" x="0" y="0" viewBox="0 0 28 28" style="enable-background:new 0 0 512 512" xml:space="preserve" class=""><g transform="matrix(7.041719095097278e-17,-1.1499999999999995,1.1499999999999995,7.041719095097278e-17,-2.099999999999996,30.099999999999994)"><switch><g><path d="M11 22c-.9 0-1.3-1.1-.7-1.7l1.4-1.4C6.1 18.3 2 15.7 2 12.5 2 8.9 7.3 6 14 6s12 2.9 12 6.5c0 2.8-3.1 5.2-7.8 6.1-.5.1-1.1-.2-1.2-.8s.2-1.1.8-1.2c3.6-.7 6.2-2.4 6.2-4.1C24 10.4 19.9 8 14 8S4 10.4 4 12.5c0 1.8 2.9 3.8 7.4 4.3l-1.1-1.1c-.4-.4-.4-1 0-1.4s1-.4 1.4 0l3 3c.4.4.4 1 0 1.4l-3 3c-.2.2-.4.3-.7.3z" fill="#000000" opacity="1" data-original="#000000" class=""></path></g></switch></g></svg>