<svg height="512" viewBox="0 0 24 24" width="512" xmlns="http://www.w3.org/2000/svg"><g id="Glyph"><path d="m22.53 12.53-4 4a.75.75 0 0 1 -1.06 0 .75.75 0 0 1 0-1.06l2.72-2.72h-14.19a.75.75 0 0 1 0-1.5h14.19l-2.72-2.72a.75.75 0 0 1 1.06-1.06l4 4a.75.75 0 0 1 0 1.06zm-8.53 3.72a.76.76 0 0 0 -.75.75v2a1.25 1.25 0 0 1 -1.25 1.25h-8a1.25 1.25 0 0 1 -1.25-1.25v-14a1.25 1.25 0 0 1 1.25-1.25h8a1.25 1.25 0 0 1 1.25 1.25v2a.75.75 0 0 0 1.5 0v-2a2.75 2.75 0 0 0 -2.75-2.75h-8a2.75 2.75 0 0 0 -2.75 2.75v14a2.75 2.75 0 0 0 2.75 2.75h8a2.75 2.75 0 0 0 2.75-2.75v-2a.76.76 0 0 0 -.75-.75z"/></g></svg>