<?xml version="1.0" encoding="UTF-8" standalone="no"?>
<!-- Created with Inkscape (http://www.inkscape.org/) -->

<svg
   version="1.1"
   id="svg1467"
   xml:space="preserve"
   width="682.66669"
   height="682.66669"
   viewBox="0 0 682.66669 682.66669"
   xmlns="http://www.w3.org/2000/svg"
   xmlns:svg="http://www.w3.org/2000/svg"><defs
     id="defs1471"><clipPath
       clipPathUnits="userSpaceOnUse"
       id="clipPath1509"><path
         d="M 0,512 H 512 V 0 H 0 Z"
         id="path1507" /></clipPath></defs><g
     id="g1473"
     transform="matrix(1.3333333,0,0,-1.3333333,0,682.66667)"><g
       id="g1475"
       transform="translate(212,300)"><path
         d="M 0,0 H 200"
         style="fill:none;stroke:#000000;stroke-width:40;stroke-linecap:square;stroke-linejoin:miter;stroke-miterlimit:10;stroke-dasharray:none;stroke-opacity:1"
         id="path1477" /></g><g
       id="g1479"
       transform="translate(292,220)"><path
         d="M 0,0 H 40"
         style="fill:none;stroke:#000000;stroke-width:40;stroke-linecap:butt;stroke-linejoin:miter;stroke-miterlimit:10;stroke-dasharray:none;stroke-opacity:1"
         id="path1481" /></g><g
       id="g1483"
       transform="translate(192,220)"><path
         d="M 0,0 H 40"
         style="fill:none;stroke:#000000;stroke-width:40;stroke-linecap:butt;stroke-linejoin:miter;stroke-miterlimit:10;stroke-dasharray:none;stroke-opacity:1"
         id="path1485" /></g><g
       id="g1487"
       transform="translate(392,220)"><path
         d="M 0,0 H 40"
         style="fill:none;stroke:#000000;stroke-width:40;stroke-linecap:butt;stroke-linejoin:miter;stroke-miterlimit:10;stroke-dasharray:none;stroke-opacity:1"
         id="path1489" /></g><g
       id="g1491"
       transform="translate(292,140)"><path
         d="M 0,0 H 40"
         style="fill:none;stroke:#000000;stroke-width:40;stroke-linecap:butt;stroke-linejoin:miter;stroke-miterlimit:10;stroke-dasharray:none;stroke-opacity:1"
         id="path1493" /></g><g
       id="g1495"
       transform="translate(192,140)"><path
         d="M 0,0 H 40"
         style="fill:none;stroke:#000000;stroke-width:40;stroke-linecap:butt;stroke-linejoin:miter;stroke-miterlimit:10;stroke-dasharray:none;stroke-opacity:1"
         id="path1497" /></g><g
       id="g1499"
       transform="translate(392,140)"><path
         d="M 0,0 H 40"
         style="fill:none;stroke:#000000;stroke-width:40;stroke-linecap:butt;stroke-linejoin:miter;stroke-miterlimit:10;stroke-dasharray:none;stroke-opacity:1"
         id="path1501" /></g><g
       id="g1503"><g
         id="g1505"
         clip-path="url(#clipPath1509)"><g
           id="g1511"
           transform="translate(140,80)"><path
             d="m 0,0 c 0,-33.137 -26.863,-60 -60,-60 -33.137,0 -60,26.863 -60,60 v 280 c 0,33.137 26.863,60 60,60 33.137,0 60,-26.863 60,-60 z"
             style="fill:none;stroke:#000000;stroke-width:40;stroke-linecap:butt;stroke-linejoin:miter;stroke-miterlimit:10;stroke-dasharray:none;stroke-opacity:1"
             id="path1513" /></g><g
           id="g1515"
           transform="translate(140,380)"><path
             d="m 0,0 h 312 c 22.091,0 40,-17.909 40,-40 v -240 c 0,-22.091 -17.909,-40 -40,-40 H -3.414"
             style="fill:none;stroke:#000000;stroke-width:40;stroke-linecap:butt;stroke-linejoin:miter;stroke-miterlimit:10;stroke-dasharray:none;stroke-opacity:1"
             id="path1517" /></g><path
           d="M 412,380 H 212 v 112 h 200 z"
           style="fill:none;stroke:#000000;stroke-width:40;stroke-linecap:butt;stroke-linejoin:miter;stroke-miterlimit:10;stroke-dasharray:none;stroke-opacity:1"
           id="path1519" /></g></g></g></svg>
