<svg xmlns="http://www.w3.org/2000/svg" version="1.1" xmlns:xlink="http://www.w3.org/1999/xlink" width="512" height="512" x="0" y="0" viewBox="0 0 24 24" style="enable-background:new 0 0 512 512" xml:space="preserve" class=""><g transform="matrix(1.129999999999999,0,0,1.129999999999999,-1.56000006198882,-1.5600000464916182)"><path d="M12 11.6c-2.8 0-5.1-2.3-5.1-5.1S9.2 1.4 12 1.4s5.1 2.3 5.1 5.1-2.3 5.1-5.1 5.1zm0-9c-2.2 0-3.9 1.7-3.9 3.9s1.7 3.9 3.9 3.9 3.9-1.7 3.9-3.9-1.7-3.9-3.9-3.9zM19 22.6H5c-1.4 0-2.6-1.2-2.6-2.6 0-3.6 3-6.6 6.6-6.6h6c3.6 0 6.6 3 6.6 6.6 0 1.4-1.2 2.6-2.6 2.6zm-10-8c-3 0-5.4 2.4-5.4 5.4 0 .8.6 1.4 1.4 1.4h14c.8 0 1.4-.6 1.4-1.4 0-3-2.4-5.4-5.4-5.4z" fill="#000000" opacity="1" data-original="#000000" class=""></path></g></svg>