<svg enable-background="new 0 0 24 24" height="512" viewBox="0 0 24 24" width="512" xmlns="http://www.w3.org/2000/svg"><path d="m17.5 21c-1.93 0-3.5-1.57-3.5-3.5s1.57-3.5 3.5-3.5 3.5 1.57 3.5 3.5-1.57 3.5-3.5 3.5zm0-6c-1.379 0-2.5 1.122-2.5 2.5s1.121 2.5 2.5 2.5 2.5-1.122 2.5-2.5-1.121-2.5-2.5-2.5z"/><path d="m17.5 24c-1.966 0-3.805-.875-5.046-2.402-1.241-1.526-1.718-3.528-1.309-5.491.512-2.456 2.506-4.45 4.962-4.961 1.961-.412 3.964.068 5.49 1.309 1.528 1.24 2.403 3.08 2.403 5.045v1.5c0 1.103-.897 2-2 2s-2-.897-2-2v-4.5c0-.276.224-.5.5-.5s.5.224.5.5v4.5c0 .551.448 1 1 1s1-.449 1-1v-1.5c0-1.663-.741-3.219-2.033-4.27-1.291-1.05-2.987-1.453-4.656-1.106-2.072.432-3.755 2.115-4.187 4.187-.348 1.667.056 3.364 1.105 4.656 1.051 1.292 2.608 2.033 4.271 2.033.276 0 .5.224.5.5s-.224.5-.5.5z"/><path d="m9.5 15h-7.5c-1.103 0-2-.897-2-2v-10c0-1.103.897-2 2-2h18c1.103 0 2 .897 2 2v6.5c0 .276-.224.5-.5.5s-.5-.224-.5-.5v-6.5c0-.551-.448-1-1-1h-18c-.552 0-1 .449-1 1v10c0 .551.448 1 1 1h7.5c.276 0 .5.224.5.5s-.224.5-.5.5z"/><path d="m11 9.578c-.366 0-.732-.083-1.066-.248l-9.656-4.782c-.248-.122-.348-.423-.226-.67.124-.248.424-.348.67-.226l9.655 4.782c.391.193.855.193 1.246 0l9.655-4.782c.245-.122.547-.021.67.227.122.247.021.547-.227.67l-9.655 4.781c-.334.165-.7.248-1.066.248z"/></svg>