<svg id="Icon" viewBox="0 0 64 64" xmlns="http://www.w3.org/2000/svg"><path fill="#fff" d="m61.94342 25.93542c-.0445-.13865-.12179-.26225-.2149-.37292l-7.21387-7.67175v-10.89075c0-2.75684-2.24316-5-5-5h-35.0293c-2.75684 0-5 2.24316-5 5v10.89075l-7.21387 7.67175c-.16298.19025-.26726.43133-.27148.68506v30.75244c0 2.75684 2.24316 5 5 5h50c2.75684 0 5-2.24316 5-5v-30.75244c0-.10828-.02338-.21198-.05658-.31213zm-23.38538 9.10858 21.44196-7.39362v29.34961c0 .41479-.08484.80994-.23767 1.16956l-21.20428-23.12555zm-24.07269-31.044h35.0293c1.6543 0 3 1.3457 3 3v17.59766c0 .55225.44727 1 1 1s1-.44775 1-1v-3.78729l4.69769 4.99585-27.21234 9.38373-20.51465-7.07416v-21.11579c0-1.6543 1.3457-3 3-3zm-5 23.42615-4.69769-1.61993 4.69769-4.99585zm-2.48535 32.57385c-1.6543 0-3-1.3457-3-3v-29.34961l21.44196 7.39362-19.17926 20.91742c-.37305.40723-.3457 1.03955.06152 1.41309.19238.17578.43359.2627.67578.2627.27051 0 .54004-.10889.7373-.32422l19.7666-21.55798 4.16992 1.43787c.21094.07324.44141.07324.65234 0l4.16992-1.43787 21.8999 23.88428c-.41895.22266-.88934.36072-1.396.36072h-49.99998z"/><path fill="#fff" d="m16.25781 10.13867h31.48438c.55273 0 1-.44775 1-1s-.44727-1-1-1h-31.48438c-.55273 0-1 .44775-1 1s.44727 1 1 1z"/><path fill="#fff" d="m16.25781 18.09912h31.48438c.55273 0 1-.44775 1-1s-.44727-1-1-1h-31.48438c-.55273 0-1 .44775-1 1s.44727 1 1 1z"/><path fill="#fff" d="m16.25781 26.05957h18.95996c.55273 0 1-.44775 1-1s-.44727-1-1-1h-18.95996c-.55273 0-1 .44775-1 1s.44727 1 1 1z"/><path fill="#fff" d="m47.74219 24.05957h-7.77148c-.55273 0-1 .44775-1 1s.44727 1 1 1h7.77148c.55273 0 1-.44775 1-1s-.44727-1-1-1z"/></svg>