<svg id="Line" viewBox="0 0 32 32" xmlns="http://www.w3.org/2000/svg"><path d="m14.2363 21.9541h-3.6001c-.9102 0-1.6504-.7402-1.6504-1.6504v-7.2007c0-.9102.7402-1.6504 1.6504-1.6504h3.6001c.4141 0 .75.3359.75.75v9.0015c0 .4141-.3359.75-.75.75zm-3.6001-9.0015c-.083 0-.1504.0674-.1504.1504v7.2007c0 .083.0674.1504.1504.1504h2.8501v-7.5015z"/><path d="m20.5195 21.9541h-6.2832c-.4141 0-.75-.3359-.75-.75v-9.0015c0-.2563.1318-.4951.3477-.6328.0171-.0112 1.7168-1.1177 2.0371-3.25.1802-1.1841 1.1177-2.0884 2.2808-2.2012.0386-.0088.1484-.0127.2432-.0127.7363 0 1.4385.3208 1.9263.8804.4883.5605.71 1.3052.6084 2.0425-.1157.8301-.3428 1.6416-.6777 2.4238h.9424c.7349 0 1.4341.3145 1.918.8628.4834.5469.7085 1.2783.6177 2.0054v.0005l-.6753 5.4009c-.166 1.2739-1.2554 2.2319-2.5352 2.2319zm-5.5332-1.5h5.5332c.5288 0 .979-.3965 1.0474-.9219l.6748-5.3975c.0381-.3047-.0522-.5986-.2534-.8267-.2026-.229-.4844-.3555-.7939-.3555h-2.1602c-.2686 0-.5171-.144-.6509-.377-.1333-.2334-.1323-.52.0039-.752.5562-.9502.9116-1.9595 1.0566-3.0005.043-.312-.0469-.6147-.2534-.8516-.2026-.2324-.4927-.3657-.7954-.3657-.5767.0522-.9644.4355-1.0405.938-.3252 2.1636-1.7095 3.5078-2.3682 4.0366v7.8735z"/><path d="m4 31.75c-.2554 0-.4966-.1304-.6353-.3516-.1611-.2568-.1519-.5854.0234-.8325 1.0137-1.4282 1.6426-2.9985 1.8687-4.6665.0317-.2417.0547-.4849.0693-.7192-2.6309-2.7695-4.0762-6.3716-4.0762-10.1802.0001-8.1333 6.6168-14.75 14.7501-14.75s14.75 6.6167 14.75 14.75-6.6167 14.75-14.75 14.75c-1.9448 0-3.8242-.3701-5.5942-1.1011-2.1787 2.0454-4.6099 2.8096-6.2812 3.0908-.0415.0068-.0835.0103-.1245.0103zm12-30c-7.3062 0-13.25 5.9438-13.25 13.25 0 3.52 1.375 6.8452 3.8721 9.3618.1445.1455.2231.3442.2173.5493-.0103.374-.0425.7803-.0957 1.1865-.1768 1.3047-.5664 2.5537-1.1626 3.7324 1.229-.4175 2.6206-1.1362 3.8979-2.3696l.231-.231c.2212-.2212.5562-.2822.8408-.1523 1.7114.7783 3.5449 1.1729 5.4492 1.1729 7.3062 0 13.25-5.9438 13.25-13.25s-5.9438-13.25-13.25-13.25z"/></svg>