<svg id="Layer_1" enable-background="new 0 0 512 512" viewBox="0 0 512 512" xmlns="http://www.w3.org/2000/svg"><path d="m276.872 339.066c25.037-23.857 39.916-56.44 42.371-93.108 8.873-7.849 14.483-19.31 14.483-32.064v-8.402c0-12.558-5.441-23.868-14.088-31.701v-10.225c0-49.116-16.395-90.447-47.415-119.529-27.536-25.815-64.553-40.033-104.233-40.033s-76.696 14.218-104.233 40.034c-31.02 29.081-47.415 70.413-47.415 119.529v10.25c-8.631 7.831-14.06 19.132-14.06 31.676v8.402c0 12.74 5.598 24.19 14.453 32.038 2.451 36.678 17.331 69.271 42.373 93.133-29.62 14.62-58.608 35.905-58.608 75.092v93.838h13.975v-93.838c0-34.621 26.572-51.88 63.171-68.255l-17.933 50.853c-.81 2.295-.366 4.848 1.171 6.736s3.947 2.844 6.359 2.512l28.561-3.878 66.544 91.727c1.315 1.812 3.417 2.885 5.656 2.885s4.341-1.073 5.656-2.885l66.544-91.727 28.532 3.878c2.415.332 4.822-.622 6.359-2.512 1.537-1.888 1.981-4.439 1.171-6.736l-17.933-50.853c36.601 16.376 63.171 33.635 63.171 68.255v93.838h13.975v-93.838c.001-39.187-28.985-60.471-58.607-75.092zm-13.754-6.38c-4.158-1.83-8.239-3.56-12.161-5.222l-29.851-12.623v-15.65c3.289-2.118 6.694-4.427 10.232-6.933h22.301c21.04 0 38.507-15.559 41.497-35.767 3.193-.311 6.279-.982 9.229-1.959-4.13 31.446-18.226 58.212-41.247 78.154zm-157.669-57.146c-22.215-16.583-34.45-41.661-34.45-70.614v-48.12c3.516.488 7.099.735 10.722.735 34.017 0 67.766-21.492 86.279-53.68 18.491 32.19 52.231 53.68 86.261 53.68 3.622 0 7.206-.247 10.722-.735v48.12c0 28.946-12.226 54.025-34.423 70.614-1.262.942-2.498 1.85-3.722 2.742h-60.106c-3.859 0-6.987 3.129-6.987 6.988s3.129 6.988 6.987 6.988h38.95c-14.979 8.645-26.978 12.351-38.423 12.246-16.805-.171-34.134-8.292-61.81-28.964zm160.22-18.843h15.206c-2.893 12.353-14.003 21.584-27.238 21.584h-4.79c6.672-6.455 12.303-13.693 16.822-21.584zm54.082-42.803c0 15.896-12.919 28.827-28.799 28.827h-18.696c4.407-11.659 6.701-24.371 6.701-37.796v-28.233h11.995c15.88 0 28.799 12.918 28.799 28.799zm-289.434-50.328c0-100.027 71.366-145.587 137.673-145.587 36.115 0 69.738 12.876 94.675 36.254 28.129 26.372 42.998 64.178 42.998 109.333v1.758c-4.589-1.686-9.544-2.607-14.711-2.607h-11.995v-14.427c0-2.169-1.007-4.215-2.727-5.539-1.719-1.322-3.955-1.772-6.052-1.215-5.078 1.347-10.433 2.029-15.918 2.029-32.973 0-65.783-23.935-79.788-58.204-1.074-2.627-3.628-4.344-6.466-4.345-.001 0-.001 0-.002 0-2.837 0-5.392 1.715-6.467 4.34-14.033 34.273-46.855 58.209-79.817 58.209-5.485 0-10.841-.682-15.918-2.029-2.096-.558-4.334-.107-6.052 1.215-1.72 1.324-2.727 3.369-2.727 5.539v14.427h-11.966c-5.177 0-10.142.926-14.74 2.619zm-14.059 41.926c0-15.88 12.919-28.799 28.799-28.799h11.967v28.233c0 13.425 2.294 26.137 6.703 37.796h-18.67c-15.88 0-28.799-12.931-28.799-28.827zm15.358 49.028c4.23 1.405 8.746 2.177 13.441 2.177h25.26c6.618 11.548 15.608 21.708 26.77 30.04 6.132 4.58 12.045 8.788 17.817 12.544v15.558l-29.885 12.627c-3.92 1.662-8 3.391-12.157 5.22-23.022-19.945-37.119-46.714-41.246-78.166zm206.329 133.195c-2.551-.352-5.086.737-6.597 2.821l-63.343 87.314-63.343-87.314c-1.512-2.084-4.044-3.168-6.597-2.821l-21.369 2.901 18.425-52.247 22.266-9.408 30.162 103.141c.892 3.05 3.68 5.028 6.704 5.028.649 0 1.309-.091 1.964-.283 3.704-1.083 5.829-4.964 4.745-8.667l-32.083-109.709v-10.906c12.864 6.786 25.304 10.781 38.237 10.912.228.003.454.004.682.004 12.3 0 24.74-3.399 39.331-11.073v11.035l-33.369 110.96c-1.111 3.696.984 7.592 4.679 8.704.671.202 1.349.297 2.015.297 3.004 0 5.779-1.952 6.689-4.976l31.423-104.488 22.292 9.427 18.425 52.248zm-69.941-132.121c-10.918 0-21.17-5.392-29.647-15.592-2.467-2.969-2.06-7.374.908-9.841 2.968-2.469 7.373-2.06 9.84.907 3.999 4.813 10.525 10.549 18.899 10.549 8.382 0 14.883-5.73 18.861-10.538 2.459-2.973 6.864-3.388 9.838-.929 2.973 2.461 3.389 6.865.928 9.839-8.325 10.063-18.847 15.605-29.627 15.605zm-29.336-63.228c-3.859 0-6.988-3.129-6.988-6.988 0-4.867-3.96-8.826-8.827-8.826-4.851 0-8.798 3.959-8.798 8.826 0 3.859-3.129 6.988-6.987 6.988-3.859 0-6.987-3.129-6.987-6.988 0-12.573 10.216-22.802 22.773-22.802 12.573 0 22.802 10.23 22.802 22.802 0 3.86-3.129 6.988-6.988 6.988zm51.657-6.988c0-12.573 10.229-22.802 22.802-22.802s22.802 10.23 22.802 22.802c0 3.859-3.129 6.988-6.987 6.988-3.859 0-6.988-3.129-6.988-6.988 0-4.867-3.96-8.826-8.827-8.826s-8.827 3.959-8.827 8.826c0 3.859-3.129 6.988-6.987 6.988s-6.988-3.128-6.988-6.988zm297.553-143.798h-132.623c-13.041 0-23.65 10.61-23.65 23.651v78.504c0 13.026 10.609 23.623 23.65 23.623h12.306v27.469c0 2.848 1.728 5.41 4.367 6.478.849.343 1.738.51 2.619.51 1.858 0 3.682-.742 5.024-2.131l31.266-32.327h77.041c13.025 0 23.622-10.597 23.622-23.623v-78.503c0-13.042-10.596-23.651-23.622-23.651zm9.647 102.155c0 5.319-4.328 9.647-9.647 9.647h-80.004c-1.894 0-3.706.769-5.023 2.131l-21.315 22.039v-17.181c0-3.859-3.129-6.988-6.987-6.988h-19.294c-5.335 0-9.675-4.327-9.675-9.647v-78.505c0-5.335 4.34-9.675 9.675-9.675h132.623c5.319 0 9.647 4.34 9.647 9.675z"/></svg>