<?xml version="1.0" encoding="UTF-8"?>
<svg xmlns="http://www.w3.org/2000/svg" id="Layer_1" data-name="Layer 1" viewBox="0 0 512 512" width="512" height="512"><path d="M501.536,227.729H468.722a7.952,7.952,0,0,0-1.952-3.152L289.912,49.336a36.27,36.27,0,1,0-67.7-.121L43.165,226.623a8.013,8.013,0,0,0-.925,1.106H10.464a8,8,0,0,0-8,8V504a8,8,0,0,0,8,8H501.536a8,8,0,0,0,8-8V235.729A8,8,0,0,0,501.536,227.729ZM18.464,296.271a8.154,8.154,0,0,0,1.3.114,55.647,55.647,0,0,0,55.5-52.656H436.74a55.647,55.647,0,0,0,55.5,52.656,8.144,8.144,0,0,0,1.3-.114V443.46a8.029,8.029,0,0,0-1.3-.114A55.644,55.644,0,0,0,436.741,496H75.259a55.644,55.644,0,0,0-55.5-52.654,8.039,8.039,0,0,0-1.3.114ZM493.536,280.5a8.029,8.029,0,0,0-1.3-.114,39.621,39.621,0,0,1-39.457-36.656h40.754ZM256.085,16a20.271,20.271,0,1,1-20.271,20.271A20.295,20.295,0,0,1,256.085,16ZM231.308,62.725a36.179,36.179,0,0,0,49.467.082L447.22,227.729H64.78Zm-172.09,181a39.621,39.621,0,0,1-39.457,36.656,8.039,8.039,0,0,0-1.3.114v-36.77Zm-40.754,215.5a8.039,8.039,0,0,0,1.3.115A39.62,39.62,0,0,1,59.218,496H18.464ZM452.782,496a39.621,39.621,0,0,1,39.457-36.654,8.029,8.029,0,0,0,1.3-.115V496Zm-55.541-72.129a8,8,0,0,0,8-8V380.162h28.068a32.152,32.152,0,0,0,0-64.3H397.24a8,8,0,0,0-8,8v92.013A8,8,0,0,0,397.241,423.871Zm36.067-92.013a16.152,16.152,0,0,1,0,32.3H405.24v-32.3ZM46.541,346.824a31.076,31.076,0,0,1,31.041-31.041h49a8,8,0,0,1,0,16h-49a15.041,15.041,0,0,0,0,30.082h46.081a31.041,31.041,0,0,1,0,62.081H70.28a8,8,0,1,1,0-16h53.383a15.041,15.041,0,0,0,0-30.081H77.582A31.076,31.076,0,0,1,46.541,346.824Zm125.707,69.047V323.858a8,8,0,0,1,16,0v38.007H230.14V323.858a8,8,0,0,1,16,0v92.013a8,8,0,0,1-16,0V377.865H188.248v38.006a8,8,0,0,1-16,0Zm145.443,8a54.007,54.007,0,1,0-54.006-54.006A54.067,54.067,0,0,0,317.691,423.871Zm0-92.013a38.007,38.007,0,1,1-38.006,38.007A38.05,38.05,0,0,1,317.691,331.858Z"/></svg>
