<svg enable-background="new 0 0 512 512" viewBox="0 0 512 512" xmlns="http://www.w3.org/2000/svg"><g id="_x31_3_List"><g><path d="m265.544 56.369h-28.394c-6.765-28.136-32.075-49.133-62.257-49.133-30.184 0-55.495 20.997-62.259 49.133h-28.416c-17.783 0-32.878 12.723-35.891 30.245l-36.143 207.981c-3.885 22.305 13.296 42.711 35.944 42.711h126.831c3.56 0 6.445-2.885 6.445-6.445s-2.885-6.445-6.445-6.445h-126.831c-14.641 0-25.759-13.179-23.246-27.614l36.145-207.993c1.949-11.329 11.701-19.55 23.191-19.55h26.687c-.181 5.626-.071 21.021-.105 34.945-8.884 2.773-15.394 10.978-15.394 20.764 0 12.049 9.803 21.851 21.851 21.851s21.849-9.803 21.849-21.851c0-9.795-6.52-18.006-15.417-20.772.045-19.839-.086-30.16.105-34.937h102.198c.203 5.061.044 7.859.105 34.937-8.897 2.766-15.417 10.977-15.417 20.772 0 12.049 9.8 21.851 21.849 21.851s21.851-9.803 21.851-21.851c0-9.786-6.51-17.991-15.394-20.764-.039-16.33.094-28.784-.105-34.945h26.664c11.48 0 21.255 8.232 23.244 19.561l10.208 58.775c.609 3.509 3.955 5.878 7.452 5.246 3.507-.609 5.856-3.945 5.246-7.452l-10.211-58.787c-3.074-17.517-18.189-30.233-35.94-30.233zm-148.287 77.56c-4.942 0-8.962-4.02-8.962-8.962 0-4.939 4.02-8.96 8.962-8.96 4.939 0 8.96 4.02 8.96 8.96-.001 4.942-4.021 8.962-8.96 8.962zm115.271 0c-4.939 0-8.96-4.02-8.96-8.962 0-4.939 4.02-8.96 8.96-8.96 4.942 0 8.962 4.02 8.962 8.96 0 4.942-4.02 8.962-8.962 8.962zm-106.598-77.56c6.416-20.956 25.932-36.244 48.963-36.244 23.03 0 42.545 15.288 48.961 36.244z"/><path d="m423.567 165.825h-202.722c-14.641 0-26.551 11.887-26.551 26.501v275.678c0 20.267 16.455 36.76 36.76 36.76h.02 212.55c30.101 0 56.743-25.158 56.743-57.385 0-3.56-2.885-6.445-6.445-6.445h-43.854v-248.608c0-14.614-11.887-26.501-26.501-26.501zm-192.514 326.05c-12.993 0-23.87-10.563-23.87-23.87v-275.679c0-7.505 6.13-13.612 13.662-13.612h202.722c7.504 0 13.612 6.107 13.612 13.612v248.608h-175.766c-3.56 0-6.445 2.885-6.445 6.445v20.6c0 13.176-10.719 23.896-23.896 23.896zm211.931 0h-183.965c5.508-6.432 8.839-14.782 8.839-23.896v-14.156h219.156c-3.132 21.494-21.685 38.052-44.03 38.052z"/><path d="m254.198 279.699c14.581 0 26.443-11.865 26.443-26.446 0-14.548-11.862-26.383-26.443-26.383-14.548 0-26.385 11.835-26.385 26.383 0 14.582 11.837 26.446 26.385 26.446zm0-39.939c7.474 0 13.554 6.052 13.554 13.493 0 7.474-6.08 13.556-13.554 13.556-7.442 0-13.496-6.082-13.496-13.556 0-7.441 6.055-13.493 13.496-13.493z"/><path d="m301.68 247.159h108.436c3.56 0 6.445-2.885 6.445-6.445s-2.885-6.445-6.445-6.445h-108.436c-3.56 0-6.445 2.885-6.445 6.445s2.885 6.445 6.445 6.445z"/><path d="m301.68 272.3h67.14c3.56 0 6.445-2.885 6.445-6.445s-2.885-6.445-6.445-6.445h-67.14c-3.56 0-6.445 2.885-6.445 6.445s2.885 6.445 6.445 6.445z"/><path d="m254.198 351.099c14.581 0 26.443-11.862 26.443-26.443 0-14.548-11.862-26.383-26.443-26.383-14.548 0-26.385 11.835-26.385 26.383 0 14.581 11.837 26.443 26.385 26.443zm0-39.937c7.474 0 13.554 6.052 13.554 13.494 0 7.474-6.08 13.554-13.554 13.554-7.442 0-13.496-6.08-13.496-13.554 0-7.442 6.055-13.494 13.496-13.494z"/><path d="m301.68 318.559h108.436c3.56 0 6.445-2.885 6.445-6.445s-2.885-6.445-6.445-6.445h-108.436c-3.56 0-6.445 2.885-6.445 6.445s2.885 6.445 6.445 6.445z"/><path d="m301.68 343.703h67.14c3.56 0 6.445-2.885 6.445-6.445s-2.885-6.445-6.445-6.445h-67.14c-3.56 0-6.445 2.885-6.445 6.445s2.885 6.445 6.445 6.445z"/><path d="m280.641 396.058c0-14.548-11.862-26.385-26.443-26.385-14.548 0-26.385 11.837-26.385 26.385 0 14.581 11.837 26.443 26.385 26.443 14.581 0 26.443-11.862 26.443-26.443zm-39.939 0c0-7.442 6.054-13.496 13.496-13.496 7.474 0 13.554 6.054 13.554 13.496 0 7.474-6.08 13.554-13.554 13.554-7.441 0-13.496-6.08-13.496-13.554z"/><path d="m301.68 389.961h108.436c3.56 0 6.445-2.885 6.445-6.445s-2.885-6.445-6.445-6.445h-108.436c-3.56 0-6.445 2.885-6.445 6.445s2.885 6.445 6.445 6.445z"/><path d="m301.68 415.103h67.14c3.56 0 6.445-2.885 6.445-6.445s-2.885-6.445-6.445-6.445h-67.14c-3.56 0-6.445 2.885-6.445 6.445s2.885 6.445 6.445 6.445z"/></g></g><g id="Layer_1"/></svg>