<?xml version="1.0" encoding="UTF-8"?>
<svg xmlns="http://www.w3.org/2000/svg" viewBox="0 0 64 64" width="512" height="512"><g id="_07-Coupon" data-name="07-Coupon"><path d="M43,14V10a1,1,0,0,1,2,0v4a1,1,0,0,1-2,0Zm0,8a1,1,0,0,0,2,0V18a1,1,0,0,0-2,0Zm0,8a1,1,0,0,0,2,0V26a1,1,0,0,0-2,0ZM9,16a5,5,0,1,1,5,5A5.00588,5.00588,0,0,1,9,16Zm2,0a3,3,0,1,0,3-3A3.00328,3.00328,0,0,0,11,16ZM31,28a5,5,0,1,1-5-5A5.00588,5.00588,0,0,1,31,28Zm-2,0a3,3,0,1,0-3,3A3.00328,3.00328,0,0,0,29,28Zm1.707-16.707a.99962.99962,0,0,0-1.41406,0l-20,20A.99989.99989,0,1,0,10.707,32.707l20-20A.99962.99962,0,0,0,30.707,11.293ZM62,54a7.99861,7.99861,0,0,1-14.99072,3.88574c-.00244-.00439-.0503-.08594-.05225-.09033l-2.957-5.32153-2.96344,5.33325A8.00022,8.00022,0,1,1,34,46a7.92353,7.92353,0,0,1,4.729,1.54834l1.26709-2.2804-6.103-10.98327a6.00716,6.00716,0,0,1,2.33007-8.15918,1.00037,1.00037,0,0,1,1.35987.38818L44,38.06226l6.417-11.54859a1.00037,1.00037,0,0,1,1.35987-.38818,6.00716,6.00716,0,0,1,2.33007,8.15918l-6.103,10.98352L49.271,47.54834A7.92353,7.92353,0,0,1,54,46,8.00917,8.00917,0,0,1,62,54ZM41.14008,43.20917,42.856,40.12109,36.38184,28.47021a4.00746,4.00746,0,0,0-.74073,4.84278ZM52.35889,33.313a4.00746,4.00746,0,0,0-.74073-4.84278L39.87891,49.59668a1.00025,1.00025,0,0,1-1.58936.21338,5.99839,5.99839,0,1,0,.9541,7.102ZM60,54a5.99638,5.99638,0,0,0-10.28955-4.18994,1.01149,1.01149,0,0,1-.84815.292,1.00039,1.00039,0,0,1-.74121-.50537L46.85992,47.327,45.144,50.4151l3.56739,6.42035A6.00052,6.00052,0,0,0,60,54ZM57,2H47a1,1,0,0,0-1,1,2,2,0,0,1-4,0,1,1,0,0,0-1-1H7A5.00588,5.00588,0,0,0,2,7V37a5.00588,5.00588,0,0,0,5,5H34a1,1,0,0,0,0-2H7a3.00328,3.00328,0,0,1-3-3V7A3.00328,3.00328,0,0,1,7,4H40.12646a4.00072,4.00072,0,0,0,7.74708,0H57a3.00328,3.00328,0,0,1,3,3V37a3.00328,3.00328,0,0,1-3,3H54a1,1,0,0,0,0,2h3a5.00588,5.00588,0,0,0,5-5V7A5.00588,5.00588,0,0,0,57,2Zm1,52a4,4,0,1,1-4-4A4.00458,4.00458,0,0,1,58,54Zm-2,0a2,2,0,1,0-2,2A2.002,2.002,0,0,0,56,54ZM38,54a4,4,0,1,1-4-4A4.00458,4.00458,0,0,1,38,54Zm-2,0a2,2,0,1,0-2,2A2.002,2.002,0,0,0,36,54Z"/></g></svg>
