<?xml version="1.0" encoding="utf-8"?>
<!-- Generator: Adobe Illustrator 27.5.0, SVG Export Plug-In . SVG Version: 6.00 Build 0)  -->
<svg version="1.1" id="Layer_1" xmlns="http://www.w3.org/2000/svg" xmlns:xlink="http://www.w3.org/1999/xlink" x="0px" y="0px"
	 viewBox="0 0 1080 720" style="enable-background:new 0 0 1080 720;" xml:space="preserve">
<g>
	<rect style="fill:#FFFFFF;" width="1080" height="720"/>
	<g>
		<path style="fill:#FFEAD7;" d="M798.92,229.435c-25.489,36.324-76.858,83.233-66.863,125.249
			c9.995,42.016,35.43,59.566,57.737,57.273s47.378-67.436,51.412-103.944C846.342,261.537,828.847,186.785,798.92,229.435z"/>
		<path style="fill:#FFEAD7;" d="M207.285,641.222c-63.592-115.567-68.349-178.284,4.539-225.346s70.036-84.27,30.188-126.201
			c-39.848-41.931-3.046-159.674,133.287-115.292s284.761-44.238,317.902-89.999c33.141-45.761,170.706,35.644,73.357,154.967
			c-76.75,94.074-78.315,126.242-40.004,160.724c38.311,34.482,96.783,94.272,54.821,157.39
			c-41.962,63.119,10.483,83.756,10.483,83.756H207.285z"/>
		<ellipse style="fill:#F7DCC6;" cx="540" cy="652.037" rx="404.177" ry="35.733"/>
		<g>
			<path style="fill:#282723;" d="M634.299,50.677H412.492c-20.541,0-37.193,16.652-37.193,37.192v513.77
				c0,20.541,16.652,37.193,37.193,37.193h221.808c20.541,0,37.193-16.652,37.193-37.193V87.87
				C671.492,67.329,654.84,50.677,634.299,50.677z"/>
			<path style="fill:#F0F3FC;" d="M648.656,84.382H398.974c-5.325,0-9.642,4.317-9.642,9.642v501.46
				c0,5.325,4.317,9.642,9.642,9.642h249.681c5.325,0,9.642-4.317,9.642-9.642V94.025C658.298,88.699,653.981,84.382,648.656,84.382
				z"/>
			<g>
				<g>
					<defs>
						<path id="SVGID_1_" d="M551.807,313.632c-0.626-0.678-1.006-1.536-1.058-2.458c-0.23-4.097-0.521-15.909,3.252-21.624
							c3.588-5.436,7.819-19.684,2.85-30.554c-2.557-5.592,2.657-18.591,5.343-24.581c0.742-1.654-0.166-3.573-1.913-4.054
							l-14.828-4.083c0,0-5.383,27.863-21.636,27.863c-16.254,0-21.636-27.863-21.636-27.863l-14.828,4.083
							c-1.747,0.481-2.655,2.4-1.913,4.054c2.686,5.99,7.899,18.989,5.343,24.581c-4.969,10.871-0.738,25.119,2.85,30.554
							c3.772,5.715,3.481,17.527,3.251,21.624c-0.052,0.921-0.432,1.78-1.058,2.458c-34.358,37.242-39.028,115.487-39.028,155.392
							h67.019h67.019C590.834,429.119,586.165,350.873,551.807,313.632z"/>
					</defs>
					<use xlink:href="#SVGID_1_"  style="overflow:visible;fill:#F95807;"/>
					<clipPath id="SVGID_00000143600346625170063170000015600502555390109323_">
						<use xlink:href="#SVGID_1_"  style="overflow:visible;"/>
					</clipPath>
					<g style="clip-path:url(#SVGID_00000143600346625170063170000015600502555390109323_);">
						<g>
							<g>
								<path style="fill:#FF8A57;" d="M490.301,390.681c-3.576,0-6.485-2.909-6.485-6.484c0-3.576,2.909-6.485,6.485-6.485
									c3.575,0,6.484,2.909,6.484,6.485C496.785,387.773,493.875,390.681,490.301,390.681z M490.301,378.779
									c-2.987,0-5.418,2.431-5.418,5.418c0,2.987,2.431,5.418,5.418,5.418c2.987,0,5.417-2.431,5.417-5.418
									C495.718,381.21,493.288,378.779,490.301,378.779z"/>
							</g>
							<g>
								<path style="fill:#FF8A57;" d="M526.456,383.548c-13.352,0-24.215-10.863-24.215-24.215s10.863-24.216,24.215-24.216
									c13.353,0,24.216,10.863,24.216,24.216S539.809,383.548,526.456,383.548z M526.456,336.183
									c-12.764,0-23.148,10.385-23.148,23.149c0,12.764,10.385,23.149,23.148,23.149c12.765,0,23.149-10.385,23.149-23.149
									C549.605,346.568,539.22,336.183,526.456,336.183z"/>
							</g>
							<g>
								<path style="fill:#FF8A57;" d="M549.285,416.402c-5.183,0-9.399-4.216-9.399-9.399c0-5.182,4.216-9.399,9.399-9.399
									c5.182,0,9.398,4.216,9.398,9.399C558.683,412.186,554.467,416.402,549.285,416.402z M549.285,398.671
									c-4.594,0-8.333,3.738-8.333,8.332c0,4.595,3.738,8.332,8.333,8.332c4.594,0,8.332-3.738,8.332-8.332
									C557.617,402.409,553.88,398.671,549.285,398.671z"/>
							</g>
							<g>
								<path style="fill:#FF8A57;" d="M463.561,456.389c-11.667,0-21.159-9.491-21.159-21.158s9.492-21.158,21.159-21.158
									c11.667,0,21.159,9.491,21.159,21.158S475.228,456.389,463.561,456.389z M463.561,415.139
									c-11.08,0-20.092,9.013-20.092,20.092s9.013,20.092,20.092,20.092c11.079,0,20.092-9.013,20.092-20.092
									S474.64,415.139,463.561,415.139z"/>
							</g>
							<g>
								<path style="fill:#FF8A57;" d="M479.294,359.866c-5.778,0-10.478-4.701-10.478-10.479c0-5.778,4.701-10.479,10.478-10.479
									c5.779,0,10.479,4.701,10.479,10.479C489.774,355.165,485.073,359.866,479.294,359.866z M479.294,339.974
									c-5.189,0-9.412,4.223-9.412,9.413c0,5.19,4.223,9.412,9.412,9.412c5.19,0,9.413-4.223,9.413-9.412
									C488.707,344.197,484.484,339.974,479.294,339.974z"/>
							</g>
							<g>
								<path style="fill:#FF8A57;" d="M510.437,326.605c-2.272,0-4.121-1.848-4.121-4.121c0-2.272,1.849-4.12,4.121-4.12
									c2.272,0,4.119,1.848,4.119,4.12C514.556,324.757,512.709,326.605,510.437,326.605z M510.437,319.431
									c-1.684,0-3.054,1.37-3.054,3.053c0,1.684,1.37,3.054,3.054,3.054c1.683,0,3.053-1.37,3.053-3.054
									C513.49,320.801,512.12,319.431,510.437,319.431z"/>
							</g>
							<g>
								<path style="fill:#FF8A57;" d="M552.991,316.17c-9.734,0-17.653-7.919-17.653-17.653c0-9.734,7.919-17.653,17.653-17.653
									c9.735,0,17.654,7.919,17.654,17.653C570.645,308.25,562.726,316.17,552.991,316.17z M552.991,281.93
									c-9.146,0-16.586,7.441-16.586,16.587c0,9.146,7.44,16.586,16.586,16.586c9.146,0,16.587-7.441,16.587-16.586
									C569.578,289.37,562.137,281.93,552.991,281.93z"/>
							</g>
							<g>
								<path style="fill:#FF8A57;" d="M552.829,266.604c-2.992,0-5.425-2.434-5.425-5.425c0-2.991,2.433-5.425,5.425-5.425
									c2.991,0,5.425,2.434,5.425,5.425C558.253,264.17,555.82,266.604,552.829,266.604z M552.829,256.821
									c-2.403,0-4.358,1.955-4.358,4.358c0,2.403,1.955,4.358,4.358,4.358c2.403,0,4.358-1.955,4.358-4.358
									C557.187,258.776,555.232,256.821,552.829,256.821z"/>
							</g>
							<g>
								<path style="fill:#FF8A57;" d="M497.76,310.544c-4.407,0-7.992-3.586-7.992-7.993c0-4.407,3.585-7.993,7.992-7.993
									c4.407,0,7.993,3.586,7.993,7.993C505.753,306.959,502.167,310.544,497.76,310.544z M497.76,295.626
									c-3.818,0-6.926,3.107-6.926,6.926s3.107,6.926,6.926,6.926c3.82,0,6.927-3.107,6.927-6.926S501.579,295.626,497.76,295.626
									z"/>
							</g>
							<g>
								<path style="fill:#FF8A57;" d="M497.555,281.93c-7.666,0-13.902-6.237-13.902-13.903s6.236-13.903,13.902-13.903
									c7.666,0,13.903,6.237,13.903,13.903S505.222,281.93,497.555,281.93z M497.555,255.191c-7.078,0-12.836,5.758-12.836,12.837
									c0,7.078,5.758,12.836,12.836,12.836c7.078,0,12.837-5.758,12.837-12.836C510.392,260.949,504.633,255.191,497.555,255.191z
									"/>
							</g>
							<g>
								<path style="fill:#FF8A57;" d="M520.387,305.907c-2.185,0-3.962-1.777-3.962-3.962c0-2.185,1.777-3.962,3.962-3.962
									c2.184,0,3.961,1.777,3.961,3.962C524.348,304.13,522.571,305.907,520.387,305.907z M520.387,299.05
									c-1.597,0-2.896,1.299-2.896,2.895c0,1.596,1.299,2.895,2.896,2.895c1.596,0,2.895-1.299,2.895-2.895
									C523.282,300.349,521.983,299.05,520.387,299.05z"/>
							</g>
							<g>
								<path style="fill:#FF8A57;" d="M532.448,259.104c-3.801,0-6.892-3.092-6.892-6.892c0-3.8,3.091-6.892,6.892-6.892
									c3.801,0,6.892,3.092,6.892,6.892C539.34,256.012,536.249,259.104,532.448,259.104z M532.448,246.386
									c-3.212,0-5.826,2.613-5.826,5.826c0,3.212,2.613,5.826,5.826,5.826c3.212,0,5.826-2.613,5.826-5.826
									C538.273,248.999,535.66,246.386,532.448,246.386z"/>
							</g>
							<g>
								<path style="fill:#FF8A57;" d="M500.817,233.995c-3.621,0-6.566-2.946-6.566-6.566c0-3.621,2.946-6.566,6.566-6.566
									s6.566,2.945,6.566,6.566C507.383,231.049,504.437,233.995,500.817,233.995z M500.817,221.929c-3.032,0-5.5,2.467-5.5,5.499
									c0,3.033,2.467,5.5,5.5,5.5s5.5-2.467,5.5-5.5C506.316,224.396,503.849,221.929,500.817,221.929z"/>
							</g>
							<g>
								<path style="fill:#FF8A57;" d="M524.05,449.541c-7.891,0-14.31-6.42-14.31-14.31s6.419-14.31,14.31-14.31
									s14.312,6.42,14.312,14.31S531.942,449.541,524.05,449.541z M524.05,421.987c-7.303,0-13.244,5.941-13.244,13.244
									s5.941,13.244,13.244,13.244c7.304,0,13.245-5.941,13.245-13.244S531.354,421.987,524.05,421.987z"/>
							</g>
							<g>
								<path style="fill:#FF8A57;" d="M585.6,484.759c-12.251,0-22.218-9.967-22.218-22.219c0-12.251,9.967-22.218,22.218-22.218
									s22.218,9.967,22.218,22.218C607.818,474.792,597.852,484.759,585.6,484.759z M585.6,441.389
									c-11.663,0-21.152,9.488-21.152,21.152c0,11.663,9.489,21.152,21.152,21.152s21.152-9.489,21.152-21.152
									C606.752,450.877,597.263,441.389,585.6,441.389z"/>
							</g>
							<g>
								<path style="fill:#FF8A57;" d="M585.193,421.824c-8.88,0-16.104-7.225-16.104-16.105c0-8.88,7.224-16.104,16.104-16.104
									c8.879,0,16.104,7.224,16.104,16.104C601.297,414.599,594.073,421.824,585.193,421.824z M585.193,390.681
									c-8.292,0-15.038,6.746-15.038,15.038c0,8.292,6.745,15.038,15.038,15.038c8.292,0,15.037-6.746,15.037-15.038
									C600.23,397.427,593.485,390.681,585.193,390.681z"/>
							</g>
							<g>
								<path style="fill:#FF8A57;" d="M502.774,484.759c-8.835,0-16.023-7.188-16.023-16.023c0-8.835,7.188-16.023,16.023-16.023
									c8.835,0,16.022,7.188,16.022,16.023C518.796,477.571,511.609,484.759,502.774,484.759z M502.774,453.78
									c-8.247,0-14.956,6.709-14.956,14.956c0,8.247,6.709,14.956,14.956,14.956c8.246,0,14.955-6.709,14.955-14.956
									C517.729,460.49,511.02,453.78,502.774,453.78z"/>
							</g>
							<g>
								<path style="fill:#FF8A57;" d="M507.216,411.796c-3.912,0-7.095-3.183-7.095-7.096c0-3.913,3.183-7.096,7.095-7.096
									c3.913,0,7.096,3.183,7.096,7.096C514.313,408.613,511.129,411.796,507.216,411.796z M507.216,398.671
									c-3.325,0-6.029,2.704-6.029,6.029c0,3.325,2.704,6.029,6.029,6.029c3.325,0,6.03-2.705,6.03-6.029
									C513.246,401.376,510.541,398.671,507.216,398.671z"/>
							</g>
							<g>
								<path style="fill:#FF8A57;" d="M465.272,397.366c-6.496,0-11.783-5.286-11.783-11.784c0-6.497,5.286-11.783,11.783-11.783
									c6.497,0,11.784,5.286,11.784,11.783C477.056,392.08,471.77,397.366,465.272,397.366z M465.272,374.866
									c-5.909,0-10.716,4.807-10.716,10.717c0,5.91,4.807,10.717,10.716,10.717s10.717-4.807,10.717-10.717
									C475.989,379.673,471.181,374.866,465.272,374.866z"/>
							</g>
							<g>
								<path style="fill:#FF8A57;" d="M573,366.807c-7.242,0-13.135-5.892-13.135-13.134s5.892-13.134,13.135-13.134
									s13.133,5.892,13.133,13.134S580.242,366.807,573,366.807z M573,341.605c-6.655,0-12.068,5.414-12.068,12.068
									c0,6.654,5.413,12.067,12.068,12.067c6.654,0,12.067-5.413,12.067-12.067C585.067,347.018,579.654,341.605,573,341.605z"/>
							</g>
						</g>
					</g>
				</g>
				<g>
					<g>
						<path style="fill:#E54A05;" d="M551.651,313.444c-7.434,2.507-17.119,3.989-27.838,3.989c-10.709,0-20.382-1.483-27.827-3.978
							c0.458-0.565,0.768-1.248,0.864-1.984c7.242,2.368,16.735,3.829,26.963,3.829c10.229,0,19.721-1.461,26.963-3.829
							C550.873,312.207,551.182,312.878,551.651,313.444z"/>
					</g>
				</g>
			</g>
			<g>
				<path style="fill:#878681;" d="M606.14,304.818L606.14,304.818l0,8.072l0,0l12.074,12.074c0.709,0.709,0.709,1.857,0,2.566
					l-12.074,12.074l0,0v8.072l0,0l20.146-20.146c0.709-0.709,0.709-1.858,0-2.566L606.14,304.818z"/>
				<path style="fill:#878681;" d="M441.49,304.818L441.49,304.818l0,8.072l0,0l-12.074,12.074c-0.709,0.709-0.709,1.857,0,2.566
					l12.074,12.074l0,0v8.072l0,0l-20.146-20.146c-0.709-0.709-0.709-1.858,0-2.566L441.49,304.818z"/>
			</g>
			<g>
				<rect x="488.854" y="498.375" style="fill:#FF8A57;" width="69.921" height="9.535"/>
				<rect x="466.663" y="512.45" style="fill:#CECECE;" width="114.303" height="4.767"/>
				<rect x="466.663" y="523.044" style="fill:#CECECE;" width="114.303" height="4.767"/>
			</g>
			<g>
				<circle style="fill:#FF8A57;" cx="424.911" cy="563.75" r="19.873"/>
				<rect x="458.847" y="543.877" style="fill:#CECECE;" width="39.745" height="39.745"/>
				<rect x="506.847" y="543.877" style="fill:#CECECE;" width="39.745" height="39.745"/>
				<rect x="554.847" y="543.877" style="fill:#CECECE;" width="39.745" height="39.745"/>
				<rect x="602.847" y="543.877" style="fill:#CECECE;" width="39.745" height="39.745"/>
			</g>
			<g style="opacity:0.2;">
				<polygon style="fill:#FFFFFF;" points="600.774,84.384 389.334,295.824 389.334,207.924 512.864,84.384 				"/>
				<polygon style="fill:#FFFFFF;" points="658.294,203.184 658.294,291.084 389.334,560.044 389.334,472.144 				"/>
				<polygon style="fill:#FFFFFF;" points="646.014,84.384 389.334,341.064 389.334,315.804 620.754,84.384 				"/>
				<polygon style="fill:#FFFFFF;" points="658.294,422.164 658.294,447.424 500.594,605.124 475.334,605.124 				"/>
			</g>
			<g>
				<polygon style="fill:#FD9E0E;" points="430.611,84.382 395.735,153.622 344.503,153.622 393.326,84.382 				"/>
				<polygon style="fill:#E8EAF7;" points="467.886,84.382 446.967,153.622 395.735,153.622 430.611,84.382 				"/>
				<polygon style="fill:#FD9E0E;" points="505.172,84.382 498.199,153.622 446.967,153.622 467.886,84.382 				"/>
				<polygon style="fill:#E8EAF7;" points="549.431,153.622 498.199,153.622 505.172,84.382 542.458,84.382 				"/>
				<polygon style="fill:#FD9E0E;" points="600.663,153.622 549.431,153.622 542.458,84.382 579.733,84.382 				"/>
				<polygon style="fill:#E8EAF7;" points="651.895,153.622 600.663,153.622 579.733,84.382 617.019,84.382 				"/>
				<polygon style="fill:#FD9E0E;" points="703.127,153.622 651.895,153.622 617.019,84.382 654.304,84.382 				"/>
				<g>
					<path style="fill:#EA8A0A;" d="M371.601,208.426h-2.962c-13.329,0-24.135-10.805-24.135-24.135v-30.668h51.232v30.668
						C395.736,197.62,384.93,208.426,371.601,208.426z"/>
					<path style="fill:#CFD2E2;" d="M422.832,208.426h-2.962c-13.329,0-24.135-10.805-24.135-24.135v-30.668h51.232v30.668
						C446.967,197.62,436.162,208.426,422.832,208.426z"/>
					<path style="fill:#EA8A0A;" d="M474.064,208.426h-2.962c-13.329,0-24.135-10.805-24.135-24.135v-30.668h51.232v30.668
						C498.199,197.62,487.393,208.426,474.064,208.426z"/>
					<path style="fill:#CFD2E2;" d="M525.296,208.426h-2.962c-13.329,0-24.135-10.805-24.135-24.135v-30.668h51.232v30.668
						C549.43,197.62,538.625,208.426,525.296,208.426z"/>
					<path style="fill:#EA8A0A;" d="M576.527,208.426h-2.962c-13.329,0-24.135-10.805-24.135-24.135v-30.668h51.232v30.668
						C600.662,197.62,589.857,208.426,576.527,208.426z"/>
					<path style="fill:#CFD2E2;" d="M627.759,208.426h-2.962c-13.329,0-24.135-10.805-24.135-24.135v-30.668h51.232v30.668
						C651.893,197.62,641.088,208.426,627.759,208.426z"/>
					<path style="fill:#EA8A0A;" d="M678.99,208.426h-2.962c-13.329,0-24.135-10.805-24.135-24.135v-30.668h51.232v30.668
						C703.125,197.62,692.32,208.426,678.99,208.426z"/>
				</g>
			</g>
		</g>
		<g>
			<path style="fill:#282723;" d="M694.271,388.892c0,0-31.316-4.345-46.433-3.092c-15.116,1.253-44.882,74.058-29.43,88.675
				c15.452,14.617,55.475,32.516,64.496,27.763c5.123-2.699,5.625-14.119,5.664-26.746l0,0.002
				c0.379-12.365,8.054-46.759,11.321-52.835l0,0c3.172-5.806,5.931-10.997,6.438-15.966
				C707.831,391.917,694.271,388.892,694.271,388.892z M692.4,445.6c-1.606,6.508-3.056,16.376-3.831,22.123
				c0.012-7.145,0.143-14.192,1.113-19.836c1.407-8.18,4.792-15.183,8.151-21.446C696.382,431.193,693.913,439.468,692.4,445.6z"/>
			<path style="fill:#34332F;" d="M673.632,367.659c-18.817-1.918-32.151,3.046-42.885,15.844c-0.011,0.005-0.018,0.008-0.018,0.008
				c-17.558,19.9-29.04,41.904-41.404,50.84c-0.541,0.372-1.081,0.739-1.619,1.1c-4.911,3.074-6.082,3.853-5.649,3.639
				c-3.393,2.115-6.664,4.057-9.69,5.931c-5.015,3.106-8.789,7.363-11.34,12.325l-0.004-0.021
				c-10.016,17.68-10.354,47.088,18.106,56.081c0.53,0.182,1.067,0.35,1.612,0.499c0.009,0.003,0.016,0.005,0.025,0.008
				l-0.004-0.003c20.249,5.523,50.485-11.126,53.118-26.22c3.249-18.627,13.646-72.126,29.673-74.508
				c16.028-2.383,36.071-5.56,36.071-5.56C705.635,404.21,699.136,370.258,673.632,367.659z M557.136,472.464
				c-0.509,11.023,3.308,23.157,11.532,33.623c0.821,1.045,1.713,1.983,2.664,2.829C564.73,505.049,552.433,494.649,557.136,472.464
				z M599.253,426.748c5.573-6.445,14.177-20.021,22.766-30.155c-0.628,1.155-1.25,2.334-1.863,3.56
				C614.42,411.625,607.012,420.075,599.253,426.748z"/>
			<path style="fill:#FCBA97;" d="M867.493,622.714c0,0,14.864,1.707,19.544,0.255c4.68-1.452,12.071-24.935,15.273-30.874
				c3.202-5.939,9.013-8.051,9.383,4.487c0.37,12.538-0.824,39.978-1.484,45.761c-0.963,8.431-12.334,6.732-18.822,2.229
				c-5.83-4.046-24.761-1.666-24.761-1.666L867.493,622.714z"/>
			<path style="fill:#282723;" d="M630.986,645.926c14.032,0.374,245.502,0,245.502,0s7.411-19.475,1.067-30.681
				c0,0-109.107-2.115-127.715-2.326c-18.607-0.211-107.627-13.321-120.526-11.841C616.416,602.558,630.986,645.926,630.986,645.926
				z"/>
			<path style="fill:#FCBA97;" d="M793.087,636.052c0,0,6.86,9.519,6.3,17.918c-0.56,8.399-1.26,13.999,4.76,15.399
				c6.019,1.4,38.777,0,48.296,0c9.519,0,10.779-8.259-3.5-13.159c-14.279-4.9-30.517-9.422-33.597-15.98
				c-3.08-6.558-8.119-18.037-8.119-18.037L793.087,636.052z"/>
			<path style="fill:#34332F;" d="M605.269,594.025c-8.248,24.59,1.793,44.617,21.356,51.055
				c23.474,7.724,71.029-35.135,100.456-64.563c0,0,47.995,56.087,59.382,69.524c0.983,1.16,2.579,1.569,4.004,1.04
				c6.127-2.275,22.343-9.331,30.541-22.789c0.846-1.389,0.615-3.181-0.519-4.347c-9.269-9.525-50.067-51.612-56.261-60.795
				c-6.995-10.372-16.216-32.31-37.657-22.788C705.131,549.883,605.269,594.025,605.269,594.025z"/>
			<path style="fill:#F95807;" d="M832.445,650.276c-1.448,1.604-5.095,6.578-5.095,16.019h-28.458
				c-0.589,0-1.066,0.477-1.066,1.066v2.056c0,0.589,0.477,1.065,1.066,1.065h62.525c4.363,0,2.281-16.274-27.626-20.685
				C833.291,649.724,832.783,649.901,832.445,650.276z"/>
			<path style="fill:#F95807;" d="M891.97,614.347c1.604,1.448,6.578,5.095,16.02,5.095l0,28.458c0,0.589,0.477,1.065,1.066,1.065
				h2.056c0.589,0,1.065-0.477,1.065-1.065l0-62.525c0-4.363-16.274-2.281-20.685,27.626
				C891.418,613.501,891.595,614.008,891.97,614.347z"/>
			<path style="fill:#282723;" d="M711.99,546.661l-0.315-0.818c-0.318-0.824,0.093-1.75,0.917-2.068l41.51-16.001
				c0.824-0.318,1.75,0.093,2.067,0.917l0.315,0.818c0.318,0.824-0.093,1.75-0.917,2.068l-41.509,16.001
				C713.233,547.895,712.307,547.485,711.99,546.661z"/>
			<path style="fill:#FCBA97;" d="M652.359,481.613c-15.2,0.69-23.7-16.16-22.77-23.95c0,0,0.84-0.42,2.14-1.38
				c3.5-2.58,10.36-9.07,13.37-21.79c0.04-0.17,0.08-0.34,0.12-0.51c4.03-17.02,4.72-21.07,4.72-21.07l13.17,28.8
				c0,0-1.61,4.09-3.1,8.12c-0.96,2.6-1.88,5.16-2.29,6.59c-0.65,2.27,2.18,5.09,4.38,6.86c1.31,1.07,2.4,1.77,2.4,1.77
				S667.549,480.934,652.359,481.613z"/>
			<path style="fill:#EDA07E;" d="M663.109,441.714c0,0-1.61,4.09-3.1,8.12c-7.31-4.67-12.12-11.31-14.79-15.85
				c4.03-17.02,4.72-21.07,4.72-21.07L663.109,441.714z"/>
			<path style="fill:#EDA07E;" d="M652.359,481.613c-15.2,0.69-23.7-16.16-22.77-23.95c0,0,0.84-0.42,2.14-1.38
				c0.98,1.82,7.27,13.08,15.01,15.86c8.42,3.04,13.61,1.82,14.55-4.45c0.28-1.88,0.56-3.32,0.81-4.41c1.31,1.07,2.4,1.77,2.4,1.77
				S667.549,480.934,652.359,481.613z"/>
			<path style="fill:#FCBA97;" d="M696.195,542.524c0,0,6.641-1.487,10.308-6.046c3.667-4.56,7.731-4.758,6.839-2.478
				c-0.892,2.28-4.857,6.641-4.361,7.731c0.496,1.09,14.567,2.133,19.92-0.643c5.353-2.775,8.211-4.13,10.204-5.039
				c2.264-1.032,2.784,1.737-0.63,4.357c-3.414,2.62-9.525,7.742-15.877,9.965c-6.352,2.223-16.357,6.67-23.344,5.082
				C692.266,553.865,696.195,542.524,696.195,542.524z"/>
			<path style="fill:#F95807;" d="M666.428,465.702l4.652,3.303c0.915,0.65,1.497,1.671,1.575,2.79
				c0.218,3.123,0.963,9.714,3.454,13.423c3.345,4.981,2.379,14.794,2.379,14.794l-13.737-17.991L666.428,465.702z"/>
			<path style="fill:#FD9E0E;" d="M629.557,455.559c0.611-0.469,1.503-0.201,1.745,0.53c1.725,5.217,13.329,21.19,22.862,20.665
				c9.58-0.527,7.627-10.547,8.399-13.82c0.1-0.422,0.602-0.592,0.943-0.325l2.587,2.024c0.179,0.14,0.289,0.344,0.302,0.571
				c0.095,1.599,0.588,8.326,2.368,12.536c2.031,4.803,12.557,12.397,12.557,27.36c0,16.274-10.506,26.968-5.96,42.82l-29.619,8.272
				L622.01,461.36L629.557,455.559z"/>
			<path style="fill:#EA8A0A;" d="M630.398,469.115c4.05,9.393,11.085,21.452,21.123,23.697c0.987,0.221,1.864,0.772,2.486,1.569
				c2.259,2.893,7.333,12.3,5.143,25.992c-2.875,17.966-6.336,25.611-4.539,31.36c1.797,5.749-11.259,14.013-18.685-10.54
				c-7.426-24.554-16.094-63.959-13.916-71.385c0.022-0.074,0.043-0.148,0.065-0.222
				C623.25,465.606,628.754,465.304,630.398,469.115z"/>
			<path style="fill:#F95807;" d="M700.609,558.393c-6.86,2.7-30.12,12.26-50.14,19.78c-0.46,0.18-0.75,0.63-0.72,1.12
				c0.14,2.3,0.43,11.635,0.91,13.085c0.2,0.63-0.2,1.29-0.84,1.42c-4.16,0.88-17.08,3.94-22.49,9.28
				c-6.2,6.12-25.49,8.04-31.07,5.14c-0.43-0.22-0.65-0.7-0.57-1.18c0.39-2.27,1.56-16.875,2.13-24.955
				c0.02-0.33-0.11-0.66-0.34-0.89c-2.16-2.12-3.39-4.35-3.48-6.1c-0.3-5.71,1.05-37.41,1.56-46.08c0.5-8.67,1.44-48.66,7.3-55
				c3.8-4.11,17.23-13.92,21.66-17.12c0.66-0.47,1.58-0.12,1.75,0.68c1.49,7.03,8.21,33.76,25.54,38.93
				c0.31,0.09,0.56,0.29,0.7,0.58c1.18,2.48,6.7,14.86,4.3,25.21c-1.45,6.28-3.03,13.52-4.35,22.58c-0.07,0.43-0.13,0.87-0.19,1.31
				c-0.11,0.76,0.56,1.41,1.31,1.27c0.13-0.02,0.27-0.05,0.4-0.08c17.33-3.53,37.3-7.93,42.65-9.11c0.7-0.15,1.36,0.39,1.36,1.11
				c0.05,8.94,2.26,15.18,3.25,17.55C701.489,557.504,701.199,558.164,700.609,558.393z"/>
			<path style="fill:#FCBA97;" d="M701.079,404.923c-0.06,0.59-0.14,1.2-0.22,1.83c-0.92,6.92-3.07,15.9-7.95,24.56
				c-0.15,0.27-0.25,0.57-0.27,0.88c-0.22,2.34-0.38,5.22-0.15,7.31c0.1,0.94-0.47,1.82-1.38,2.05c-1.23,0.3-3.05,0.61-5.21,0.51
				c-0.52-0.03-1.02,0.16-1.38,0.53c-2.84,2.95-6.14,5.7-10.01,8.14c-1.08,0.68-2.42,0.73-3.53,0.11
				c-5.14-2.88-20.65-11.78-22.97-28.86c-0.58,0.12-1.18,0.14-1.77-0.03c-0.84-0.21-1.65-0.8-2.29-1.96
				c-2.62-4.72-1.4-18.69,3.75-18.09c3.63,0.42,5.81,3.93,6.77,5.97c0,0,0.05,0.01,0.14,0.03c18.16,3.4,39.21-2.35,45.06-4.14
				C700.419,403.533,701.169,404.143,701.079,404.923z"/>
			<path style="fill:#EDA07E;" d="M701.079,404.923c-0.06,0.59-0.14,1.2-0.22,1.83c-15.75,8.03-44.03,1.67-46.25,1.15
				c18.16,3.4,39.21-2.35,45.06-4.14C700.419,403.533,701.169,404.143,701.079,404.923z"/>
			<path style="fill:#EDA07E;" d="M652.849,412.633c-0.05,5.03-4.84,9.35-4.84,9.35c-0.58,0.12-1.18,0.14-1.77-0.03
				C652.099,418.194,652.849,412.633,652.849,412.633z"/>
			<path style="fill:#E54A05;" d="M653.579,547.453c-11.77,2.41-22.11,3.05-26.67,3.21c-1.35,0.05-2.46-1.03-2.44-2.38
				c0.1-9.25-0.05-30.67-0.05-30.67s1.79,30.19,3.92,29.81c1.69-0.3,17.7-1.91,24.12-2.55c-0.07,0.43-0.13,0.87-0.19,1.31
				C652.159,546.943,652.829,547.593,653.579,547.453z"/>
			<path style="fill:#E54A05;" d="M596.735,596.157c7.866-0.848,31.211-4.587,53.114-14.809c-0.039-0.878-0.073-1.604-0.1-2.055
				c-0.03-0.49,0.26-0.94,0.72-1.12c-27.89,10.86-51.61,4.63-52.99,3.02c0.23,0.23,0.36,0.56,0.34,0.89
				C597.545,585.966,597.133,591.354,596.735,596.157z"/>
			<g>
				<path style="fill:#3D3D3D;" d="M687.739,426.96c-1.268,1.82-3.129,2.839-4.156,2.277c-1.027-0.562-0.831-2.493,0.437-4.313
					c1.268-1.82,3.129-2.839,4.156-2.277C689.204,423.21,689.008,425.141,687.739,426.96z"/>
				<path style="fill:#3D3D3D;" d="M693.497,418.403c-0.889-0.452-1.948-0.831-2.982-1.116c-1.046-0.288-2.119-0.506-3.208-0.623
					c-2.177-0.258-4.412-0.151-6.601,0.285c2.121-0.69,4.371-1.073,6.644-1.072c1.137-0.012,2.278,0.081,3.412,0.253
					c1.144,0.181,2.238,0.417,3.399,0.842c0.41,0.151,0.621,0.604,0.471,1.015c-0.15,0.41-0.604,0.621-1.015,0.47
					c-0.029-0.011-0.055-0.022-0.082-0.036L693.497,418.403z"/>
				<path style="fill:#3D3D3D;" d="M674.759,439.793c0.881,1.162,1.636,2.234,2.542,3.138c0.446,0.457,0.943,0.83,1.478,1.179
					c0.543,0.343,1.151,0.585,1.844,0.851c-0.692,0.196-1.49,0.251-2.216-0.006c-0.732-0.229-1.396-0.658-1.939-1.185
					C675.422,442.681,674.761,441.269,674.759,439.793z"/>
			</g>
			<path style="fill:#F95807;" d="M648.94,417.553c-0.773,0-1.539,0.094-2.28,0.278c-0.535,0.133-0.861,0.676-0.729,1.212
				c0.133,0.536,0.678,0.865,1.213,0.728c0.582-0.145,1.187-0.219,1.796-0.219c4.087,0,7.412,3.325,7.412,7.412
				c0,4.087-3.325,7.412-7.412,7.412c-0.001,0-0.002,0-0.002,0v-0.003c-4.08,0-7.41-3.32-7.41-7.41c0-2.44,1.17-4.66,3.09-6.02
				c-0.24-0.26-0.46-0.58-0.67-0.95c-0.13-0.23-0.25-0.49-0.36-0.77c-2.52,1.73-4.06,4.59-4.06,7.74
				c0,5.185,4.212,9.401,9.396,9.409c0.006,0,0.011,0.003,0.017,0.003c5.19,0,9.412-4.222,9.412-9.412
				C658.352,421.776,654.13,417.553,648.94,417.553z"/>
		</g>
		<path style="fill:#FD9E0E;" d="M787.738,458.194h-54.801c-3.525,0-6.383,2.858-6.383,6.383v32.182
			c0,3.525,2.858,6.383,6.383,6.383h9.635l-4.25,14.99l14.981-14.99h34.434c3.525,0,6.383-2.858,6.383-6.383v-32.182
			C794.12,461.052,791.262,458.194,787.738,458.194z"/>
		<g>
			<path style="fill:#FFFFFF;" d="M772.781,472.914c-0.244-0.341-0.637-0.544-1.056-0.544h-22.341l-2.231-6.484
				c-0.18-0.523-0.672-0.875-1.225-0.875h-0.001l-5.251,0.006c-0.716,0.001-1.296,0.582-1.295,1.298
				c0.001,0.716,0.581,1.295,1.296,1.295h0.001l4.326-0.005l2.231,6.483l5.008,14.574c0.18,0.523,0.672,0.875,1.225,0.875h13.238
				c0.553,0,1.046-0.351,1.225-0.874l5.018-14.574C773.088,473.693,773.024,473.255,772.781,472.914z M765.783,486.944h-11.388
				l-4.117-11.981h19.63L765.783,486.944z"/>
			<circle style="fill:#FFFFFF;" cx="754.29" cy="493.129" r="2.223"/>
			<path style="fill:#FFFFFF;" d="M767.957,493.129c0,1.228-0.995,2.223-2.223,2.223c-1.228,0-2.223-0.995-2.223-2.223
				c0-1.228,0.995-2.223,2.223-2.223C766.961,490.906,767.957,491.902,767.957,493.129z"/>
		</g>
		<g>
			<rect x="311.988" y="534.913" style="fill:#EA8A0A;" width="88.923" height="124.289"/>
			<rect x="187.699" y="534.913" style="fill:#FD9E0E;" width="124.289" height="124.289"/>
			<polygon style="fill:#FD9E0E;" points="352.408,534.913 352.408,551.294 352.408,554.534 352.408,557.466 354.085,556.364 
				355.763,557.466 357.438,556.364 359.109,557.466 360.783,556.364 362.455,557.466 364.124,556.364 365.796,557.466 
				365.796,554.534 365.796,551.294 365.796,534.913 			"/>
			<polygon style="fill:#FD9E0E;" points="365.797,659.146 365.797,642.765 365.797,639.525 365.797,636.593 364.119,637.695 
				362.442,636.593 360.766,637.695 359.096,636.593 357.422,637.695 355.75,636.593 354.081,637.695 352.408,636.593 
				352.408,639.525 352.408,642.765 352.408,659.146 			"/>
			<rect x="239.654" y="534.913" style="fill:#EA8A0A;" width="2.358" height="124.289"/>
			<rect x="193.762" y="539.918" style="fill:#EA8A0A;" width="36.125" height="19.294"/>
		</g>
		<g>
			<rect x="296.508" y="428.67" style="fill:#EA8A0A;" width="35.03" height="48.962"/>
			<rect x="247.546" y="428.67" style="fill:#FD9E0E;" width="48.962" height="48.962"/>
			<polygon style="fill:#FD9E0E;" points="312.431,428.67 312.431,435.123 312.431,436.399 312.431,437.554 313.092,437.12 
				313.753,437.554 314.413,437.12 315.071,437.554 315.73,437.12 316.389,437.554 317.047,437.12 317.706,437.554 317.706,436.399 
				317.706,435.123 317.706,428.67 			"/>
			<polygon style="fill:#FD9E0E;" points="317.706,477.61 317.706,471.157 317.706,469.88 317.706,468.725 317.045,469.159 
				316.384,468.725 315.724,469.159 315.066,468.725 314.406,469.159 313.748,468.725 313.09,469.159 312.431,468.725 
				312.431,469.88 312.431,471.157 312.431,477.61 			"/>
			<rect x="268.013" y="428.67" style="fill:#EA8A0A;" width="0.929" height="48.962"/>
			<rect x="249.934" y="430.641" style="fill:#EA8A0A;" width="14.231" height="7.601"/>
		</g>
		<g>
			<rect x="329.19" y="477.632" style="fill:#E54A05;" width="49.548" height="57.281"/>
			<rect x="259.935" y="477.632" style="fill:#F95807;" width="69.255" height="57.281"/>
			<polygon style="fill:#F95807;" points="351.712,477.632 351.712,486.76 351.712,488.565 351.712,490.199 352.647,489.585 
				353.582,490.199 354.515,489.585 355.446,490.199 356.379,489.585 357.311,490.199 358.241,489.585 359.173,490.199 
				359.173,488.565 359.173,486.76 359.173,477.632 			"/>
			<polygon style="fill:#F95807;" points="359.173,534.882 359.173,525.754 359.173,523.949 359.173,522.315 358.238,522.929 
				357.303,522.315 356.37,522.929 355.439,522.315 354.506,522.929 353.575,522.315 352.645,522.929 351.713,522.315 
				351.713,523.949 351.713,525.754 351.713,534.882 			"/>
			<rect x="288.885" y="477.632" style="fill:#E54A05;" width="1.314" height="57.281"/>
			<rect x="263.313" y="480.421" style="fill:#E54A05;" width="20.129" height="10.751"/>
		</g>
		<g>
			<g>
				<path style="fill:#CFD2E2;" d="M793.621,317.574l-0.381-0.253c-1.943-2.852,20.936-118.814,25.543-142.032l0.981,0.194
					C808.846,230.51,793,313.555,794.092,316.808c-0.018-0.057-0.116-0.186-0.294-0.218L793.621,317.574z"/>
			</g>
			<g>
				<g>
					
						<rect x="761.948" y="179.604" transform="matrix(0.9484 -0.3171 0.3171 0.9484 -39.4458 254.6016)" style="fill:#CFD2E2;" width="1.001" height="137.76"/>
				</g>
				<g>
					
						<rect x="776.998" y="263.035" transform="matrix(0.629 -0.7774 0.7774 0.629 108.9529 755.3699)" style="fill:#CFD2E2;" width="137.759" height="1"/>
				</g>
			</g>
			<g>
				<path style="fill:#F9BF87;" d="M828.214,122.725c0,0-60.88,11.709-72.714,77.307c-0.424-0.088-0.803-0.358-0.972-0.805
					c-1.862-4.753-8.304-9.062-16.526-10.546c-7.234-1.305-13.94-0.069-17.764,2.827c-0.011-0.002-0.011-0.002-0.011-0.002
					c-1.752,1.085-2.208,0.587-2.032-0.521C729.692,143.911,777.739,113.619,828.214,122.725z"/>
				<path style="fill:#CFD2E2;" d="M828.214,122.725c0,0-23.542,21.758-34.798,84.147c-0.412-0.086-0.802-0.358-0.971-0.805
					c-1.85-4.751-8.304-9.062-16.527-10.546c-8.211-1.482-15.765,0.303-19.17,4.105c-0.328,0.368-0.813,0.495-1.248,0.404
					C767.335,134.434,828.214,122.725,828.214,122.725z"/>
				<path style="fill:#F9BF87;" d="M831.414,213.727c-0.451-0.069-0.864-0.346-1.04-0.817c-1.862-4.753-8.315-9.064-16.527-10.546
					c-8.223-1.484-15.776,0.3-19.17,4.105c-0.339,0.366-0.825,0.492-1.26,0.402c11.255-62.389,34.798-84.147,34.798-84.147
					S842.669,151.338,831.414,213.727z"/>
				<path style="fill:#CFD2E2;" d="M869.33,220.568c-0.439-0.067-0.85-0.355-1.04-0.817c-1.861-4.753-8.304-9.062-16.526-10.546
					c-8.223-1.484-15.765,0.302-19.17,4.105c-0.315,0.359-0.752,0.482-1.18,0.417c11.255-62.389-3.199-91.002-3.199-91.002
					S881.165,154.97,869.33,220.568z"/>
				<path style="fill:#F9BF87;" d="M907.433,225.127c-0.121,0.608-0.355,0.981-0.769,0.906c-0.322-0.058-0.748-0.396-1.317-1.128
					c-2.57-4.05-8.434-7.554-15.668-8.859c-8.211-1.481-15.765,0.303-19.158,4.108c-0.314,0.359-0.764,0.48-1.191,0.414
					c11.834-65.598-41.116-97.843-41.116-97.843C878.678,131.829,913.111,177.002,907.433,225.127z"/>
			</g>
			<g>
				
					<rect x="798.469" y="309.154" transform="matrix(0.9841 0.1775 -0.1775 0.9841 72.9773 -140.0297)" style="fill:#ED764C;" width="40.936" height="57.217"/>
				
					<rect x="742.031" y="300.441" transform="matrix(0.9841 0.1775 -0.1775 0.9841 70.6646 -131.5957)" style="fill:#FF8A57;" width="57.218" height="57.217"/>
				<polygon style="fill:#FF8A57;" points="822.185,309.278 820.846,316.7 820.581,318.167 820.342,319.496 821.192,319.134 
					821.862,319.77 822.711,319.408 823.378,320.043 824.226,319.681 824.894,320.317 825.74,319.954 826.408,320.59 
					826.647,319.262 826.912,317.794 828.251,310.373 				"/>
				<polygon style="fill:#FF8A57;" points="818.097,366.655 819.436,359.234 819.701,357.767 819.941,356.438 819.09,356.8 
					818.42,356.164 817.571,356.526 816.905,355.89 816.056,356.253 815.389,355.617 814.543,355.979 813.875,355.344 
					813.635,356.672 813.37,358.14 812.032,365.561 				"/>
				
					<rect x="766.015" y="299.704" transform="matrix(0.9841 0.1776 -0.1776 0.9841 70.5117 -130.9473)" style="fill:#ED764C;" width="1.085" height="57.217"/>
				
					<rect x="748.982" y="299.985" transform="matrix(0.9841 0.1775 -0.1775 0.9841 66.0825 -129.6207)" style="fill:#ED764C;" width="16.63" height="8.882"/>
			</g>
		</g>
		<g>
			<g>
				<path style="fill:#CFD2E2;" d="M279.429,302.51l-0.439-0.055c-2.433-1.369-27.122-92.322-32.047-110.541l0.965-0.261
					c11.629,43.02,29.649,107.81,31.633,109.975c-0.046-0.049-0.203-0.134-0.389-0.079L279.429,302.51z"/>
			</g>
			<g>
				<g>
					
						<rect x="232.196" y="209.193" transform="matrix(0.7091 -0.7051 0.7051 0.7091 -118.5215 240.8879)" style="fill:#CFD2E2;" width="1" height="109.799"/>
				</g>
				<g>
					
						<rect x="242.71" y="244.83" transform="matrix(0.2177 -0.976 0.976 0.2177 -6.6198 482.4019)" style="fill:#CFD2E2;" width="109.798" height="1.001"/>
				</g>
			</g>
			<g>
				<path style="fill:#F9BF87;" d="M235.183,151.008c0,0-39.34,29.898-24.589,80.937c-0.334,0.087-0.7,0.028-0.979-0.231
					c-3.011-2.736-9.136-3.535-15.534-1.686c-5.628,1.627-9.981,4.882-11.688,8.303c-0.009,0.003-0.009,0.003-0.009,0.003
					c-0.867,1.395-1.37,1.201-1.635,0.347C172.309,200.991,195.911,162.359,235.183,151.008z"/>
				<path style="fill:#E8EAF7;" d="M235.183,151.008c0,0-9.118,23.868,4.912,72.41c-0.325,0.084-0.7,0.028-0.978-0.231
					c-3.002-2.739-9.137-3.535-15.535-1.686c-6.389,1.847-11.153,5.793-12.24,9.713c-0.104,0.379-0.406,0.641-0.749,0.73
					C195.843,180.906,235.183,151.008,235.183,151.008z"/>
				<path style="fill:#F9BF87;" d="M269.659,214.873c-0.346,0.11-0.74,0.059-1.032-0.216c-3.011-2.736-9.146-3.532-15.534-1.686
					c-6.398,1.849-11.161,5.795-12.24,9.714c-0.113,0.382-0.415,0.644-0.758,0.733c-14.03-48.542-4.912-72.41-4.912-72.41
					S255.629,166.331,269.659,214.873z"/>
				<path style="fill:#E8EAF7;" d="M299.16,206.346c-0.337,0.107-0.733,0.047-1.032-0.216c-3.011-2.736-9.137-3.535-15.534-1.686
					c-6.398,1.849-11.153,5.793-12.24,9.714c-0.098,0.368-0.367,0.61-0.695,0.715c-14.031-48.542-34.476-63.865-34.476-63.865
					S284.408,155.308,299.16,206.346z"/>
				<path style="fill:#F9BF87;" d="M327.987,196.123c0.128,0.477,0.093,0.826-0.229,0.919c-0.251,0.073-0.675-0.018-1.34-0.34
					c-3.268-1.983-8.696-2.412-14.324-0.785c-6.388,1.846-11.153,5.793-12.231,9.711c-0.097,0.368-0.376,0.613-0.704,0.717
					c-14.752-51.038-63.977-55.338-63.977-55.338C274.446,139.66,315.019,159.743,327.987,196.123z"/>
			</g>
			<g>
				
					<rect x="288.31" y="285.074" transform="matrix(0.9607 -0.2777 0.2777 0.9607 -73.5094 96.6922)" style="fill:#EDAE7A;" width="32.627" height="45.604"/>
				
					<rect x="244.244" y="295.936" transform="matrix(0.9607 -0.2777 0.2777 0.9607 -78.0029 86.685)" style="fill:#F9BF87;" width="45.604" height="45.604"/>
				<polygon style="fill:#F9BF87;" points="296.868,286.383 298.537,292.157 298.867,293.299 299.166,294.332 299.645,293.773 
					300.348,293.99 300.827,293.431 301.528,293.65 302.006,293.091 302.707,293.309 303.183,292.75 303.885,292.968 
					303.586,291.935 303.256,290.793 301.587,285.019 				"/>
				<polygon style="fill:#F9BF87;" points="314.245,328.809 312.576,323.035 312.246,321.893 311.947,320.859 311.468,321.419 
					310.764,321.201 310.286,321.76 309.585,321.542 309.107,322.101 308.405,321.883 307.929,322.441 307.228,322.224 
					307.526,323.257 307.856,324.399 309.525,330.173 				"/>
				
					<rect x="263.438" y="296.854" transform="matrix(0.9607 -0.2777 0.2777 0.9607 -78.3778 85.8321)" style="fill:#EDAE7A;" width="0.865" height="45.604"/>
				
					<rect x="242.179" y="302.331" transform="matrix(0.9607 -0.2777 0.2777 0.9607 -75.1493 81.117)" style="fill:#EDAE7A;" width="13.255" height="7.079"/>
			</g>
		</g>
		<path style="fill:#FFEAD7;" d="M200.699,291.54c24.377,1.003,64.021,55.409,26.875,90.074
			c-37.146,34.665-52.228-2.208-55.49-25.275S178.41,290.623,200.699,291.54z"/>
	</g>
</g>
</svg>
