<svg id="Layer_1" height="512" viewBox="0 0 512 512" width="512" xmlns="http://www.w3.org/2000/svg" data-name="Layer 1"><path d="m508.776 10.926c-1.558-2.698-4.531-4.242-7.645-3.968l-192.265 17.286c-3.474.312-6.345 2.84-7.096 6.246s.792 6.906 3.812 8.65l73.651 42.516c-2.852 1.76-5.713 3.444-8.549 5.014-3.866 2.139-5.266 7.007-3.127 10.873 1.46 2.639 4.191 4.128 7.007 4.128 1.311 0 2.639-.322 3.866-1.001 1.436-.794 2.877-1.621 4.319-2.462l-.006 74.581c0 3.488 2.26 6.574 5.585 7.628.796.252 1.609.374 2.414.374 2.555 0 5.017-1.228 6.543-3.396l111.106-157.865c1.794-2.549 1.944-5.906.386-8.604zm-42.356 15.217-75.668 43.687-55.283-31.913zm-67.668 57.543 75.667-43.687-75.672 107.52zm-34.466 216.543-35.717-29.757v-95.838c0-10.945-8.904-19.85-19.85-19.85h-217.331c-10.945 0-19.85 8.904-19.85 19.85v95.838l-35.716 29.757c-6.633 5.525-10.139 13.008-10.139 21.641v155.037c0 15.531 12.636 28.167 28.167 28.167h292.406c15.531 0 28.166-12.635 28.166-28.166v-155.038c0-8.508-3.6-16.193-10.137-21.641zm-95.066 79.686 89.204-53.382v150.07s-89.204-96.688-89.204-96.688zm83.418-68.565-24.068 14.403v-34.455zm-261.25-140.566h217.332c2.123 0 3.85 1.727 3.85 3.85v160.694l-106.27 63.595c-4.026 2.409-8.466 2.411-12.494 0l-106.268-63.594v-160.695c0-2.123 1.727-3.85 3.85-3.85zm-49.704 305.819v-150.07l89.203 53.382zm29.854-150.85-24.068-14.403 24.068-20.052v34.456zm-17.687 163.32c-.603 0-1.19-.059-1.77-.144l92.831-100.621 40.677 24.343c4.529 2.71 9.497 4.065 14.465 4.065s9.935-1.355 14.463-4.065l40.678-24.343 92.832 100.621c-.579.085-1.167.144-1.769.144zm239.745-203.275c0 4.418-3.582 8-8 8h-56.717c-4.418 0-8-3.582-8-8s3.582-8 8-8h56.717c4.418 0 8 3.582 8 8zm0 43.022c0 4.418-3.582 8-8 8h-19.008c-4.418 0-8-3.582-8-8s3.582-8 8-8h19.008c4.418 0 8 3.582 8 8zm-45.739 0c0 4.418-3.582 8-8 8h-29.345c-4.418 0-8-3.582-8-8s3.582-8 8-8h29.345c4.418 0 8 3.582 8 8zm-26.906-78.045h-62.968c-4.418 0-8-3.582-8-8s3.582-8 8-8h62.968c4.418 0 8 3.582 8 8s-3.582 8-8 8zm-30.411 78.045c0 4.418-3.582 8-8 8h-27.892c-4.418 0-8-3.582-8-8s3.582-8 8-8h27.892c4.418 0 8 3.582 8 8zm-84.028 0c0-4.418 3.582-8 8-8h14.647c4.418 0 8 3.582 8 8s-3.582 8-8 8h-14.647c-4.418 0-8-3.582-8-8zm0-43.022c0-4.418 3.582-8 8-8h84.23c4.418 0 8 3.582 8 8s-3.582 8-8 8h-84.23c-4.418 0-8-3.582-8-8zm0-43.023c0-4.418 3.582-8 8-8h18.445c4.418 0 8 3.582 8 8s-3.582 8-8 8h-18.445c-4.418 0-8-3.582-8-8zm73.317-43.022c0-4.418 3.582-8 8-8h97.767c4.418 0 8 3.582 8 8s-3.582 8-8 8h-97.767c-4.418 0-8-3.582-8-8zm-73.317 0c0-4.418 3.582-8 8-8h36.522c4.418 0 8 3.582 8 8s-3.582 8-8 8h-36.522c-4.418 0-8-3.582-8-8zm187.084 43.022c0 4.418-3.582 8-8 8h-38.395c-4.418 0-8-3.582-8-8s3.582-8 8-8h38.395c4.418 0 8 3.582 8 8zm-172.673-170.644c.941-4.317 5.208-7.05 9.521-6.111l1.35.3c4.635 1.039 9.446 2.301 14.7 3.854 4.237 1.253 6.656 5.704 5.403 9.94-1.029 3.479-4.216 5.733-7.669 5.733-.751 0-1.515-.106-2.271-.33-4.908-1.452-9.382-2.625-13.676-3.589l-1.247-.276c-4.317-.942-7.053-5.205-6.111-9.521zm122.018 38.32c.866-4.333 5.086-7.141 9.412-6.277 5.161 1.031 10.277 1.87 15.207 2.494 4.384.555 7.487 4.558 6.933 8.94-.511 4.043-3.956 6.997-7.927 6.997-.335 0-.673-.021-1.014-.064-5.306-.671-10.802-1.572-16.334-2.678-4.333-.866-7.144-5.08-6.277-9.412zm-185.612-38.456c-.747-4.354 2.178-8.49 6.532-9.237 5.363-.92 11.062-1.504 16.938-1.735 4.425-.151 8.135 3.265 8.309 7.68.173 4.415-3.265 8.135-7.68 8.309-5.182.203-10.182.714-14.861 1.517-.457.078-.913.116-1.362.116-3.824 0-7.206-2.751-7.875-6.648zm124.717 18.874c1.513-4.15 6.104-6.29 10.255-4.777 5.974 2.177 10.584 3.82 14.949 5.328 4.176 1.443 6.391 5.999 4.948 10.175-1.145 3.311-4.245 5.389-7.562 5.389-.866 0-1.748-.142-2.613-.44-4.452-1.539-9.14-3.21-15.2-5.418-4.15-1.513-6.29-6.104-4.777-10.256zm-175.282 10.244c2.696-5.479 6.18-10.536 10.353-15.03 3.007-3.235 8.068-3.424 11.307-.418 3.237 3.007 3.424 8.068.418 11.307-3.114 3.354-5.712 7.123-7.722 11.206-1.392 2.828-4.231 4.47-7.184 4.47-1.187 0-2.391-.265-3.526-.824-3.964-1.95-5.597-6.746-3.646-10.71zm299.717 14.448c-.635-4.372 2.396-8.431 6.769-9.065 4.988-.724 10.013-1.704 14.933-2.915 4.294-1.051 8.625 1.568 9.68 5.857 1.055 4.291-1.567 8.624-5.857 9.68-5.422 1.333-10.959 2.414-16.458 3.212-.389.057-.776.084-1.158.084-3.91 0-7.329-2.869-7.907-6.853zm-273.332 97.315c-2.763-3.448-2.207-8.483 1.241-11.245 3.447-2.764 8.481-2.208 11.245 1.241 3.131 3.908 6.521 7.829 10.078 11.654 3.008 3.236 2.823 8.298-.412 11.307-1.541 1.432-3.496 2.141-5.445 2.141-2.146 0-4.285-.857-5.861-2.553-3.822-4.112-7.472-8.333-10.846-12.545zm-10.775-49.003c1.611 4.114-.418 8.756-4.531 10.367-.958.375-1.945.553-2.916.553-3.196 0-6.215-1.929-7.451-5.084-2.15-5.492-3.872-10.998-5.116-16.367-.997-4.305 1.685-8.603 5.988-9.6 4.309-.997 8.603 1.684 9.6 5.988 1.068 4.614 2.558 9.373 4.427 14.143z"/></svg>