<svg xmlns="http://www.w3.org/2000/svg" version="1.1" xmlns:xlink="http://www.w3.org/1999/xlink" width="512" height="512" x="0" y="0" viewBox="0 0 24 24" style="enable-background:new 0 0 512 512" xml:space="preserve"><g transform="matrix(1.1399999999999992,0,0,1.1399999999999992,-1.679999949932089,-1.6799998664855913)"><path d="M4.5 9.45V16A2.503 2.503 0 0 0 7 18.5h2.793l-2.147 2.146a.5.5 0 1 0 .707.707l3-3a.5.5 0 0 0 0-.707l-3-3a.5.5 0 0 0-.707.707L9.793 17.5H7A1.502 1.502 0 0 1 5.5 16V9.45a3.5 3.5 0 1 0-1 0ZM5 3.5A2.5 2.5 0 1 1 2.5 6 2.503 2.503 0 0 1 5 3.5Zm14.5 11.05V8A2.503 2.503 0 0 0 17 5.5h-2.793l2.146-2.146a.5.5 0 0 0-.707-.707l-3 3a.5.5 0 0 0 0 .707l3 3a.5.5 0 0 0 .707-.707L14.207 6.5H17A1.502 1.502 0 0 1 18.5 8v6.55a3.5 3.5 0 1 0 1 0ZM19 20.5a2.5 2.5 0 1 1 2.5-2.5 2.503 2.503 0 0 1-2.5 2.5Z" fill="#000000" opacity="1" data-original="#000000"></path></g></svg>