<svg id="Layer_1" enable-background="new 0 0 64 64" height="512" viewBox="0 0 64 64" width="512" xmlns="http://www.w3.org/2000/svg"><path d="m62.9 20.3-26.6-14.2c-2.7-1.4-5.9-1.4-8.5 0l-26.7 14.2c-.7.3-1.1 1-1.1 1.8v30c0 3.3 2.7 6 6 6h52c3.3 0 6-2.7 6-6v-30c0-.8-.4-1.5-1.1-1.8zm-33.3-10.7c1.5-.8 3.3-.8 4.8 0l25.6 13.7v1.6l-16.7 8.9-7-3.7c-2.7-1.4-5.9-1.4-8.5 0l-7 3.7-16.8-8.9v-1.6zm-25.6 19.8 12.5 6.7-12.5 6.6zm54 24.7h-52c-1.1 0-2-.9-2-2v-4.8l25.6-13.7c1.5-.8 3.3-.8 4.8 0l18.7 10c1 .5 2.2.2 2.7-.8s.2-2.2-.8-2.7l-7.4-4 12.4-6.7v22.7c0 1.1-.9 2-2 2z"/></svg>