<svg xmlns="http://www.w3.org/2000/svg" version="1.1" xmlns:xlink="http://www.w3.org/1999/xlink" width="512" height="512" x="0" y="0" viewBox="0 0 24 24" style="enable-background:new 0 0 512 512" xml:space="preserve" class=""><g transform="matrix(1.1099999999999994,0,0,1.1099999999999994,-1.3199999999999914,-1.292489614486687)"><path d="M22 15.25h-.516l-2.762-6.116 1.514.568a.75.75 0 0 0 .528-1.404l-7.014-2.63V3.5a.75.75 0 0 0-1.5 0v1.605L4.764 2.298a.75.75 0 0 0-.528 1.404l1.443.541-3.187 7.007H2a.75.75 0 0 0-.75.75 5.25 5.25 0 0 0 10.5 0 .75.75 0 0 0-.75-.75h-.516l-2.83-6.266 8.977 3.366-3.139 6.9H13a.75.75 0 0 0-.75.75 5.25 5.25 0 0 0 10.5 0 .75.75 0 0 0-.75-.75zm-15.5.5a3.757 3.757 0 0 1-3.675-3h7.35a3.757 3.757 0 0 1-3.675 3zm-2.36-4.5 2.358-5.184 2.34 5.184zm13.358-1.184 2.34 5.184H15.14zm.002 9.684a3.757 3.757 0 0 1-3.675-3h7.35a3.757 3.757 0 0 1-3.675 3z" fill="#000000" opacity="1" data-original="#000000" class=""></path></g></svg>