<?xml version="1.0" standalone="no"?>
<!DOCTYPE svg PUBLIC "-//W3C//DTD SVG 20010904//EN"
 "http://www.w3.org/TR/2001/REC-SVG-20010904/DTD/svg10.dtd">
<svg version="1.0" xmlns="http://www.w3.org/2000/svg"
 width="600.000000pt" height="600.000000pt" viewBox="0 0 600.000000 600.000000"
 preserveAspectRatio="xMidYMid meet">

<g transform="translate(0.000000,600.000000) scale(0.100000,-0.100000)"
fill="#000000" stroke="none">
<path d="M2680 5226 c0 -310 -1 -335 -17 -339 -10 -3 -54 -13 -98 -22 -181
-39 -412 -134 -579 -239 -48 -31 -91 -56 -95 -56 -3 0 -111 105 -238 232
l-233 233 -227 -228 -228 -227 233 -233 c127 -127 232 -235 232 -238 0 -4 -25
-47 -56 -95 -105 -167 -200 -398 -239 -579 -9 -44 -19 -88 -22 -97 -4 -17 -29
-18 -339 -18 l-334 0 0 -320 0 -320 334 0 c310 0 335 -1 339 -17 3 -10 13 -54
22 -98 39 -181 134 -412 239 -579 31 -48 56 -91 56 -95 0 -3 -105 -111 -232
-238 l-233 -233 228 -227 227 -228 233 233 c127 127 235 232 238 232 4 0 45
-24 93 -54 170 -107 400 -202 581 -241 44 -9 88 -19 98 -22 16 -4 17 -29 17
-339 l0 -334 320 0 320 0 0 335 0 335 23 5 c12 2 54 12 92 20 214 47 425 139
653 285 21 14 30 7 257 -220 l235 -235 227 228 228 227 -233 233 c-127 127
-232 235 -232 238 0 4 25 47 56 95 105 167 200 398 239 579 9 44 19 88 22 98
4 16 29 17 339 17 l334 0 0 320 0 320 -334 0 c-310 0 -335 1 -339 18 -3 9 -13
53 -22 97 -39 181 -134 412 -239 579 -31 48 -56 91 -56 95 0 3 105 111 232
238 l233 233 -228 227 -227 228 -235 -235 c-227 -227 -236 -234 -257 -220
-228 146 -439 238 -653 285 -38 8 -80 18 -92 20 l-23 5 0 335 0 335 -320 0
-320 0 0 -334z m470 -636 c277 -29 516 -115 750 -271 128 -85 334 -291 419
-419 372 -559 372 -1241 0 -1800 -85 -128 -291 -334 -419 -419 -119 -79 -258
-149 -377 -190 -481 -165 -991 -97 -1423 190 -128 85 -334 291 -419 419 -372
559 -372 1241 0 1800 85 128 291 334 419 419 321 214 688 308 1050 271z"/>
<path d="M2275 3627 c-62 -21 -97 -42 -139 -84 -121 -120 -122 -326 -2 -446
20 -21 60 -49 89 -64 44 -23 64 -27 137 -27 70 -1 94 3 135 24 236 115 247
442 18 567 -72 40 -171 52 -238 30z"/>
<path d="M3563 3631 c-59 -15 -138 -67 -175 -116 -124 -163 -69 -394 117 -485
41 -21 65 -25 135 -24 73 0 93 4 137 27 116 60 178 161 178 287 -1 129 -69
235 -183 288 -58 26 -154 37 -209 23z"/>
<path d="M1917 2730 c-82 -21 -150 -40 -152 -42 -9 -9 59 -188 105 -277 181
-350 525 -602 920 -672 106 -19 335 -17 442 4 262 52 478 166 663 352 110 110
180 206 246 335 39 78 102 250 94 258 -2 2 -71 21 -153 42 l-150 37 -27 -76
c-106 -297 -325 -511 -621 -604 -496 -157 -1030 119 -1193 616 -13 37 -23 67
-24 66 -1 0 -69 -18 -150 -39z"/>
</g>
</svg>
