<svg id="Capa_1" enable-background="new 0 0 512 512" height="512" viewBox="0 0 512 512" width="512" xmlns="http://www.w3.org/2000/svg"><g><path d="m219.516 285.546 43.274 30.712h57.509c47.911 0 86.89-38.979 86.89-86.89v-97.398h-80.002v-8.955c0-30.456-24.777-55.324-55.232-55.435l-30.082-.11v27.532c0 14.476-4.992 28.662-14.057 39.947l-7.729 9.623-115.275-.174v141.338zm14.954-110.974 16.735-20.836c12.789-15.922 20.064-35.771 20.631-56.155h.009c13.974.051 25.342 11.461 25.342 25.435v38.955h80.002v67.398c0 31.369-25.521 56.89-56.89 56.89h-47.944l-43.274-30.712h-28.301v-80.974h33.69zm-63.691 81.164h-35.968v-81.338h35.968z"/><path d="m0 2.192v394.058h199.221l56.779 113.558 56.779-113.559h199.221v-394.057zm482 364.058h-187.762l-38.238 76.476-38.238-76.477h-187.762v-334.057h452z"/></g></svg>