<svg height="512" viewBox="0 0 24 24" width="512" xmlns="http://www.w3.org/2000/svg"><g id="Layer_2" data-name="Layer 2"><path d="m17 22.75h-14a1.76 1.76 0 0 1 -1.75-1.75v-18a1.76 1.76 0 0 1 1.75-1.75h14a1.76 1.76 0 0 1 1.75 1.75v12.93a.75.75 0 0 1 -1.5 0v-12.93a.25.25 0 0 0 -.25-.25h-14a.25.25 0 0 0 -.25.25v18a.25.25 0 0 0 .25.25h14a.75.75 0 0 1 .35 1.45 1 1 0 0 1 -.35.05z"/><path d="m10 16.75h-4a.75.75 0 0 1 0-1.5h4a.75.75 0 0 1 0 1.5z"/><path d="m14 12.25h-8a.75.75 0 0 1 0-1.5h8a.75.75 0 0 1 0 1.5z"/><path d="m14 7.75h-8a.75.75 0 0 1 0-1.5h8a.75.75 0 0 1 0 1.5z"/><path d="m18 23.22c-1 0-3-2-4.45-3.77a3.61 3.61 0 0 1 0-4.69 3 3 0 0 1 4.28 0l.12.11.12-.11a3 3 0 0 1 4.28 0 3.62 3.62 0 0 1 0 4.74c-1.35 1.67-3.35 3.72-4.35 3.72zm-2.26-7.85a1.52 1.52 0 0 0 -1.08.45 2.13 2.13 0 0 0 0 2.62 17.85 17.85 0 0 0 3.34 3.26 17.69 17.69 0 0 0 3.3-3.21 2.15 2.15 0 0 0 0-2.67 1.52 1.52 0 0 0 -2.16 0l-.65.64a.75.75 0 0 1 -1.06 0l-.65-.64a1.51 1.51 0 0 0 -1.04-.45z"/></g></svg>