<?xml version="1.0" encoding="iso-8859-1"?>
<!-- Generator: Adobe Illustrator 19.0.0, SVG Export Plug-In . SVG Version: 6.00 Build 0)  -->
<svg version="1.1" id="Layer_1" xmlns="http://www.w3.org/2000/svg" xmlns:xlink="http://www.w3.org/1999/xlink" x="0px" y="0px"
	 viewBox="0 0 512 512" style="enable-background:new 0 0 512 512;" xml:space="preserve">
<g>
	<g>
		<path d="M497,9h-64h-96h-33c-19.214,0-36.435,8.656-48,22.262C244.435,17.656,227.214,9,208,9H15C6.716,9,0,15.716,0,24v416
			c0,8.284,6.716,15,15,15h193c18.196,0,33,14.804,33,33c0,8.284,6.716,15,15,15s15-6.716,15-15c0-18.196,14.804-33,33-33h193
			c8.284,0,15-6.716,15-15V24C512,15.716,505.284,9,497,9z M241,434.363c-9.604-5.931-20.907-9.363-33-9.363H30V39h178
			c18.196,0,33,14.804,33,33V434.363z M352,39h66v116.972l-24.68-16.453C390.801,137.84,387.9,137,385,137
			c-2.9,0-5.801,0.84-8.32,2.519L352,155.972V39z M482,425H304c-12.093,0-23.396,3.432-33,9.363V72c0-18.196,14.804-33,33-33h18v145
			c0,5.532,3.045,10.615,7.922,13.225c4.879,2.611,10.796,2.324,15.398-0.744L385,170.028l39.68,26.453
			c2.51,1.673,5.411,2.519,8.321,2.519c2.426,0,4.859-0.588,7.077-1.775c4.877-2.61,7.922-7.693,7.922-13.225V39h34V425z"/>
	</g>
</g>
<g>
	<g>
		<path d="M176,137H79c-8.284,0-15,6.716-15,15s6.716,15,15,15h97c8.284,0,15-6.716,15-15S184.284,137,176,137z"/>
	</g>
</g>
<g>
	<g>
		<path d="M176,233H79c-8.284,0-15,6.716-15,15s6.716,15,15,15h97c8.284,0,15-6.716,15-15S184.284,233,176,233z"/>
	</g>
</g>
<g>
	<g>
		<path d="M176,329H79c-8.284,0-15,6.716-15,15s6.716,15,15,15h97c8.284,0,15-6.716,15-15S184.284,329,176,329z"/>
	</g>
</g>
<g>
	<g>
		<path d="M433,233h-96c-8.284,0-15,6.716-15,15s6.716,15,15,15h96c8.284,0,15-6.716,15-15S441.284,233,433,233z"/>
	</g>
</g>
<g>
	<g>
		<path d="M433,329h-96c-8.284,0-15,6.716-15,15s6.716,15,15,15h96c8.284,0,15-6.716,15-15S441.284,329,433,329z"/>
	</g>
</g>
<g>
</g>
<g>
</g>
<g>
</g>
<g>
</g>
<g>
</g>
<g>
</g>
<g>
</g>
<g>
</g>
<g>
</g>
<g>
</g>
<g>
</g>
<g>
</g>
<g>
</g>
<g>
</g>
<g>
</g>
</svg>
