<svg id="Layer_1" enable-background="new 0 0 50 50" height="512" viewBox="0 0 50 50" width="512" xmlns="http://www.w3.org/2000/svg"><g><path d="m42.71149 22.27831c-.0018-.0015-.004-.0018-.00568-.0033-.05822-.0495-.12141-.0878-.19081-.1233-.03-.0158-.0611-.0282-.0925-.0411-.0299-.012-.0574-.0264-.0881-.0355-.0233-.0066-.0412-.0228-.0653-.0278l-17.0586-3.4838c-.1328-.0264-.2676-.0264-.4004 0l-17.0596 3.4838c-.1064.0218-.20469.0658-.2976.1199-.019.0109-.03509.0238-.0532.0359-.0372.025-.0774.0452-.1111.0752l-5.5381 4.8984c-.5869.5201-.8379 1.3174-.6543 2.0801.18361.7632.76961 1.3589 1.5303 1.5542l4.3242 1.1127v10.0651c0 1.4575.9834 2.7407 2.3906 3.1206l15.4082 4.1547c.1694.0462.3518.0463.5215 0l15.4092-4.1547c1.4072-.3794 2.3897-1.6626 2.3897-3.1206v-10.0703l4.3046-1.1075c.7598-.1958 1.3457-.791 1.52931-1.5542.18359-.7627-.06731-1.56-.65521-2.0801zm-17.70119-1.7144 12.4463 2.5422-12.4556 2.9974-12.4475-2.9955zm-21.9697 8.2251c-.0166-.0683.0205-.1005.0351-.1142l5.1459-4.5523 15.2176 3.662-3.2805 5.3869c-.0263.0429-.0732.0674-.12889.0527l-16.90531-4.3496c-.0205-.0054-.0673-.0176-.0839-.0855zm5.9101 13.1998v-9.5505l10.58011 2.7223c.17869.0459.35839.0684.53509.0684.7247 0 1.4073-.3726 1.8008-1.0166l2.1436-3.5196v16.3008l-14.14749-3.8149c-.53711-.145-.91211-.6343-.91211-1.1899zm32.1192 0c0 .5556-.375 1.0449-.9112 1.1899l-14.1484 3.8149v-16.2674l2.124 3.4872c.3926.6435 1.0752 1.0156 1.7998 1.0156.1768 0 .3565-.0225.5342-.0684l10.6016-2.7275zm5.8066-13.1143-16.9072 4.3496c-.044.0112-.1016-.0083-.127-.0518l-3.2809-5.387 15.2176-3.6623 5.1444 4.5518c.0156.0137.0527.0464.0361.1142-.01561.0679-.0635.0801-.083.0855z"/><path d="m25.2733 7.08071-.3743.0936c-.8916.2236-1.5137 1.021-1.5137 1.9399v3.1856c0 .6421.31151 1.249.832 1.6235.3447.2476.7549.376 1.169.376.2138 0 .4287-.0342.6357-.104l3.2567-1.0936.7589 1.0262c.3233.438.8194.728 1.3604.7954.082.0103.1631.0152.2451.0152.459 0 .9111-.1587 1.2686-.4517l12.5156-10.2373c.6631-.5425.9053-1.4141.6172-2.2207-.2871-.8066-1.0264-1.3276-1.8828-1.3276h-19.7852c-.7725 0-1.4609.4311-1.7988 1.1254-.33789.6944-.251 1.5035.2265 2.1104zm18.88839-4.3791-12.5166 10.2369-2.36529-3.1983c-.32811-.4433-.95411-.5371-1.39841-.2095-.4444.3287-.5381.9546-.209 1.399l.3567.4823-2.6438.8878-.001-3.1851 1.8674-.4669c.0159-.0038.0309-.007.0467-.0116l6.1748-1.5439c.5361-.1343.8623-.6768.7275-1.2129-.1338-.5357-.6787-.8628-1.21189-.7276l-5.59021 1.3976-3.0221-3.8482z"/></g></svg>