<svg id="Layer_1" enable-background="new 0 0 50 50" height="512" viewBox="0 0 50 50" width="512" xmlns="http://www.w3.org/2000/svg"><g><path d="m45.9191 10.90576c-.36895-.34621-1.01806-.35807-1.40015.03857-.00366.00391-.00903.00513-.01294.00928l-6.92969 7.41504c-.14385.15359-.26953.47298-.26953.68262v28.94873c0 .55225.44727 1 1 1h6.92969c.55273 0 1-.44775 1-1v-36.36377c0-.0061-.00342-.01123-.00342-.01733-.00712-.37882-.37445-.81318-.31396-.71314zm-6.61231 36.09424v-27.55444l4.92969-5.27502v32.82946z"/><path d="m48.00015 8.21094c.55273 0 1-.44775 1-1v-5.21094c0-.55225-.44727-1-1-1h-5.51953c-.55273 0-1 .44775-1 1s.44727 1 1 1h3.1106l-.72095.77197c-.81348.87305-1.62988 1.74903-15.48145 16.56055-7.35156-3.71094-8.78125-4.41309-9.29395-4.36133l-.00195-.00488-.04004.01025c-.02441.00439-.04785.01025-.06934.01758l-18.22753 4.59912c-.53613.13525-.86035.67871-.72559 1.21436.13514.53652.67803.85906 1.21387.7251l17.97949-4.53662c1.63672.81689 8.81445 4.39941 8.93359 4.45996.39453.19824.87695.11475 1.18066-.20996 14.34474-15.33936 15.17189-16.22657 15.99513-17.11036l.66699-.71448v2.78967c0 .55225.44727 1.00001 1 1.00001z"/><path d="m3.1398 48c0 .55225.44727 1 1 1h6.93945c.55273 0 1-.44775 1-1v-23.68604c0-.60977-.63098-1.12057-1.24512-.96973l-6.93945 1.75098c-.41281.10515-.75488.56332-.75488.96973zm2-1v-20.15576l4.93945-1.24634v21.4021z"/><path d="m14.52847 48c0 .55225.44727 1 1 1h6.93945c.55273 0 1-.44775 1-1v-24.60596c0-.36029-.27134-.75383-.55273-.89453l-2.59961-1.30078c-.21387-.10693-.45898-.13281-.69238-.0752l-4.33984 1.0957c-.4174.10632-.75488.56853-.75488.96973v24.81104zm5.22461-24.84619 1.71484.85815v22.98804h-4.93945v-23.03198z"/><path d="m25.91812 48c0 .55225.44727 1 1 1h6.93945c.55273 0 1-.44775 1-1v-24.18506c0-.00562-.00317-.01001-.00317-.01563-.00391-.2707-.19316-.73773-.63159-.91064-.42426-.1677-.87295.01665-1.08154.23267-.00415.00427-.01001.00562-.01416.01001l-2.84961 3.04541-2.91211-1.45654c-.20726-.10363-.61575-.15499-.96143.05713-.33172.20369-.47232.51821-.47974.80737-.00024.0105-.0061.01941-.0061.03003zm4.5791-19.59521c.27051 0 .53613-.10938.73047-.31641l1.62988-1.74121v20.65283h-4.93945v-19.76685l2.13184 1.06616c.14258.07081.29492.10548.44726.10548z"/></g></svg>