<svg id="Layer_1" enable-background="new 0 0 50 50" height="512" viewBox="0 0 50 50" width="512" xmlns="http://www.w3.org/2000/svg"><g><path d="m33.5 24c-4.9 0-8.9 4-8.9 8.9s4 8.9 8.9 8.9 8.9-4 8.9-8.9c0-5-4-8.9-8.9-8.9zm0 15.7c-3.8 0-6.9-3.1-6.9-6.9s3.1-6.9 6.9-6.9 6.9 3.1 6.9 6.9-3.1 6.9-6.9 6.9z"/><path d="m37.6 28.9-5.7 5.7-2.4-2.4c-.4-.4-1-.4-1.4 0s-.4 1 0 1.4l3.1 3.1c.2.2.5.3.7.3.3 0 .5-.1.7-.3l6.4-6.4c.4-.4.4-1 0-1.4s-1-.4-1.4 0z"/><path d="m47.7 16.7c-.3 0-.7 0-.9.3-1.3 1.3-3 2.1-4.7 2.4-1.1-10.4-9.9-18.4-20.5-18.4-11.4 0-20.6 9.2-20.6 20.5s9.2 20.5 20.6 20.5c1.1 0 2.2-.1 3.2-.3 2.3 3.2 5.2 5.8 8.4 7.1.1 0 .3.1.4.1s.3 0 .4-.1c10-4.1 16.2-20.2 14.8-31.3-.1-.5-.6-.9-1.1-.8zm-7.6 2.8c-2.1-.1-4.2-1-5.8-2.6-.4-.4-1.1-.4-1.5 0-.2.2-.5.4-.7.6-.1-.7-.2-1.3-.3-2h7.3c.6 1.3.8 2.6 1 4zm-1.7-5.9h-6.9c-.9-4.2-2.5-7.5-4.4-9.7 5 1.5 9.1 5 11.3 9.7zm-15.8-10.5c2.9.7 5.6 4.7 6.9 10.4h-6.9zm0 12.5h7.3c.2 1 .3 2.1.4 3.2-2.4 1.1-5.2 1.1-7.6 0v-3.2zm-2-12.5v10.4h-6.9c1.3-5.7 4-9.6 6.9-10.4zm-1.8 24.4h-5.4c-.3-1.9-.5-3.9-.5-6 0-2 .2-4 .5-6h7.3v1.9c-.2-.2-.4-.3-.6-.5s-.5-.3-.7-.3c-.5 0-.9.4-1 .9-.5 3.1-.3 6.5.4 10zm-2.7-23.7c-1.9 2.2-3.5 5.5-4.4 9.7h-6.9c2.3-4.6 6.3-8.1 11.3-9.7zm-13.1 17.7c0-2.1.4-4.1 1-6h7.3c-.3 1.9-.5 3.9-.5 6 0 2 .2 4 .5 6h-7.3c-.6-1.9-1-3.9-1-6zm1.8 8h6.9c.9 4.2 2.4 7.5 4.4 9.7-5-1.5-9-5.1-11.3-9.7zm15.8 10.4c-2.9-.7-5.6-4.7-6.9-10.4h5.5c.4 1.4.8 2.9 1.4 4.3zm2 .1v-1.8c.3.6.6 1.2 1 1.7-.3.1-.7.1-1 .1zm11 6.9c-8.4-3.8-13.9-17.3-13.5-27.3.3.2.7.5 1.1.7 3.3 1.7 7.2 1.7 10.5 0h.1c.6-.3 1.2-.7 1.8-1.2 3.8 3.2 9.4 3.4 13.4.4.5 9.9-5 23.6-13.4 27.4z"/></g></svg>