<svg id="Layer_1" enable-background="new 0 0 50 50" height="512" viewBox="0 0 50 50" width="512" xmlns="http://www.w3.org/2000/svg"><g><path d="m5 42h20.2c2 4.2 6.3 7 11.2 7 7 0 12.6-5.6 12.6-12.5s-5.6-12.5-12.5-12.5c-2.5 0-4.8.7-6.7 2v-15.3c0-2.1-1.8-3.9-4-3.9h-2.2v-1c0-1.3-1.1-2.4-2.5-2.4h-2.5c-.4-1.4-1.7-2.4-3.2-2.4s-2.8 1-3.2 2.3h-2.5c-1.4 0-2.5 1.1-2.5 2.4v1h-2.2c-2.2 0-4 1.7-4 3.9v27.4c0 2.2 1.8 4 4 4zm42-5.5c0 5.8-4.7 10.5-10.5 10.5s-10.5-4.7-10.5-10.5 4.7-10.5 10.5-10.5c5.8-.1 10.5 4.7 10.5 10.5zm-37.8-30.7c0-.2.2-.4.5-.4h3.3c.6 0 1-.4 1-1 0-.8.6-1.4 1.4-1.4s1.4.6 1.4 1.3c0 .6.4 1 1 1h3.3c.3 0 .5.2.5.4v4.1c0 .2-.2.4-.5.4h-11.4c-.3 0-.5-.2-.5-.4zm-6.2 4.9c0-1 .9-1.9 2-1.9h2.2v1c0 1.3 1.1 2.4 2.5 2.4h11.4c1.4 0 2.5-1.1 2.5-2.4v-1h2.2c1.1 0 2 .8 2 1.9v16.8c-2.3 2.3-3.8 5.5-3.8 9 0 1.2.2 2.4.5 3.5h-19.5c-1.1 0-2-.8-2-1.9z"/><path d="m7.7 17.5h8.1c.6 0 1-.4 1-1s-.4-1-1-1h-8.1c-.6 0-1 .4-1 1s.5 1 1 1z"/><path d="m7.7 21.4h15.3c.6 0 1-.4 1-1s-.4-1-1-1h-15.3c-.6 0-1 .4-1 1s.5 1 1 1z"/><path d="m7.7 25.3h15.3c.6 0 1-.4 1-1s-.4-1-1-1h-15.3c-.6 0-1 .4-1 1s.5 1 1 1z"/><path d="m7.7 29.2h15.3c.6 0 1-.4 1-1s-.4-1-1-1h-15.3c-.6 0-1 .4-1 1s.5 1 1 1z"/><path d="m7.7 33.1h15.3c.6 0 1-.4 1-1s-.4-1-1-1h-15.3c-.6 0-1 .4-1 1s.5 1 1 1z"/><path d="m34.1 40.4c.2.2.5.3.7.3.3 0 .5-.1.7-.3l6.5-6.4c.4-.4.4-1 0-1.4s-1-.4-1.4 0l-5.8 5.7-2.5-2.5c-.4-.4-1-.4-1.4 0s-.4 1 0 1.4z"/></g></svg>