<svg id="Layer_1" enable-background="new 0 0 50 50" height="512" viewBox="0 0 50 50" width="512" xmlns="http://www.w3.org/2000/svg"><g><path d="m9.05708 27.86475h9.62793l-7.07617 19.79883c-.16016.44678.0166.94482.42285 1.19141.16016.09765.33984.14501.51856.14501.27051 0 .53809-.10986.7334-.31982l28.39258-30.60742c.27051-.2915.3418-.71582.18359-1.08008-.15918-.36426-.51953-.6001-.91699-.6001h-14.95704l6.57813-13.96631c.14648-.31006.12402-.67285-.05957-.96191s-.50195-.46436-.84473-.46436h-17.21484c-.4707 0-.87793.32813-.97754.78809l-5.3877 24.86475c-.06348.2959.00977.60449.19922.83984s.47559.37207.77832.37207zm6.19434-24.86475h14.83203l-6.57813 13.96631c-.14648.31006-.12402.67285.05957.96191s.50195.46436.84473.46436h14.24121l-23.51855 25.35303 5.91309-16.54443c.10938-.30615.06348-.64648-.12402-.9126-.1875-.26563-.49219-.42383-.81738-.42383h-9.80664z"/></g></svg>