<svg id="svg2" height="24" viewBox="0 0 24.000001 24.000001" width="24" xmlns="http://www.w3.org/2000/svg" xmlns:cc="http://creativecommons.org/ns#" xmlns:dc="http://purl.org/dc/elements/1.1/" xmlns:inkscape="http://www.inkscape.org/namespaces/inkscape" xmlns:rdf="http://www.w3.org/1999/02/22-rdf-syntax-ns#" xmlns:sodipodi="http://sodipodi.sourceforge.net/DTD/sodipodi-0.dtd" xmlns:svg="http://www.w3.org/2000/svg"><g id="layer1" transform="translate(0 -1028.362)"><path id="rect4136-0" d="m3.8027344 3c-.436196 0-.8027344.3665344-.8027344.8027344v4.3945312c0 .4361.3665384.8027344.8027344.8027344h4.3945312c.4361959 0 .8027344-.3666344.8027344-.8027344v-4.3945312c0-.4362-.3665385-.8027344-.8027344-.8027344zm7.1972656 0v1h-1v1h1v3h-1v1h1v1h-4v1h1v1h-1v1h2v1h1v-1h3v-1-1h1 1v1h2v-1h-1v-1h-2v-4h-1v3h-1v-1-2h1v-1h-1v-2zm2 2h1v-1h-1zm4 6h1v1h1v-1-1h-2zm-2 1h-1v1h1zm-5 2v1h1v-1zm1 1v1h1v-1zm1 0h3v-1h-3zm0 1v2h2v-2zm3.802734-13c-.436195 0-.802734.3665344-.802734.8027344v4.3945312c0 .4361.366539.8027344.802734.8027344h4.394532c.436196 0 .802734-.3666344.802734-.8027344v-4.3945312c0-.4362-.366538-.8027344-.802734-.8027344zm-11.802734 1h4v4.0019531h-4zm12 0h4v4.0019531h-4zm-11 1v2h2v-2zm12 0v2h2v-2zm-14 5v1 1h1v-1h2v-1zm1 2v1h1v-1zm1 1v1h1v-1zm-1 0h-1v1h1zm16-3v4h1v-4zm-11 1h1v1h-1zm2 0h1v1h-1zm5 2v2h1v-1h2v-1h-2zm-12.1972656 2c-.4361959 0-.8027344.366534-.8027344.802734v4.394532c0 .4361.3665385.802734.8027344.802734h4.3945312c.436196 0 .8027344-.366634.8027344-.802734v-4.394532c0-.4362-.3665384-.802734-.8027344-.802734zm.1972656 1h4v4.001953h-4zm12 0v1h1v-1zm1 1v1h2v-1h1v2h1v-3h-1-2v1zm3 2h-1v1 1h2v-1h-1zm-4-2h-1v4h1zm-11 0v2h2v-2zm5 1v3h1v-1h1v-1h-1v-1zm3 1v1h1v-1zm4 0v1h1v-1z" transform="translate(0 1028.362)" font-variant-ligatures="normal" font-variant-position="normal" font-variant-caps="normal" font-variant-numeric="normal" font-variant-alternates="normal" font-feature-settings="normal" text-indent="0" text-align="start" text-decoration-line="none" text-decoration-style="solid" text-decoration-color="#000000" text-transform="none" text-orientation="mixed" white-space="normal" shape-padding="0" isolation="auto" mix-blend-mode="normal" solid-color="#000000" solid-opacity="1" vector-effect="none"/></g></svg>