<svg id="Layer_1" enable-background="new 0 0 50 50" height="512" viewBox="0 0 50 50" width="512" xmlns="http://www.w3.org/2000/svg"><g><path d="m41.43817 14.568v-7.0348c0-1.6543-1.3457-3-3-3h-10.6843c-1.0604-2.1348-3.2578-3.5332-5.7512-3.5332-2.4318 0-4.6261 1.3984-5.687 3.5332h-7.5791c-1.6543 0-3 1.3457-3 3v34.6543c0 1.6543 1.3457 3 3 3h1.8847v.8125c0 1.6543 1.34571 3 3 3h27.6392c1.6543 0 3-1.3457 3-3v-28.085c.02151-.2793-.0742-.5654-.2861-.7803zm-2-7.0348v5.0106l-1.4453-1.4628c-.5596-.5664-1.33689-.8916-2.1338-.8916h-7.4184v-2.8242c0-.2839-.037-.558-.0732-.832h10.0707c.55181 0 1 .4482 1 1zm-17.3623-4.5332c1.2933 0 2.48611.5836 3.2999 1.5332h-6.6822c.81741-.9472 2.03041-1.5332 3.3823-1.5332zm-13.3393 40.1875c-.5513 0-1-.4483-1-1v-34.6543c0-.5518.4487-1 1-1h17.6182c.0533.2695.0859.5461.0859.832v2.8242h-12.8194c-1.65429 0-3 1.3457-3 3v29.9981zm33.5239 2.8125c0 .5517-.4483 1-1 1h-27.6392c-.5512 0-1-.4483-1-1 0-9.9652 0-22.7245 0-32.8106 0-.5517.4488-1 1-1h12.8194v16.5713c0 1.8301-1.4849 3.3193-3.3101 3.3193-1.8301 0-3.3193-1.4892-3.3193-3.3193v-9.3174c0-.5527-.4478-1-1-1-.55229 0-1 .4473-1 1v9.3174c0 2.9326 2.3862 5.3193 5.3193 5.3193 2.9277 0 5.3101-2.3867 5.3101-5.3193v-16.5713h7.4184c.2656 0 .5244.1084.711.2969.3137.3175 5.8451 5.9164 5.6904 5.7598z"/></g></svg>