<svg id="Layer_1" enable-background="new 0 0 50 50" height="512" viewBox="0 0 50 50" width="512" xmlns="http://www.w3.org/2000/svg"><g><path d="m3.05239 30.3081 4.2295 1.0879v10.417c0 1.4385.9697 2.7046 2.3584 3.0786l15.1084 4.0738c.0859.0234.1738.0346.2607.0346s.17482-.0112.2607-.0346l15.1084-4.0738c1.38872-.374 2.3584-1.6401 2.3584-3.0786v-10.4198l4.2061-1.0821c.7529-.1934 1.333-.7832 1.5146-1.5386.1817-.7549-.0673-1.5439-.64838-2.0581l-5.42872-4.8032c-.0067-.006-.0155-.0072-.02228-.0129-.10922-.0888-.34692-.1995-.424-.2171l-8.53522-1.9388c1.7746-1.9915 2.8633-4.6067 2.8633-7.4777 0-6.2114-5.0527-11.2647-11.2636-11.2647-6.211 0-11.2647 5.0533-11.2647 11.2647 0 2.9155 1.1231 5.5672 2.94722 7.5696l-8.51162 1.8401c-.0026.0003-.0049.0017-.0075.002-.11588.0142-.3907.1098-.5394.2421l-5.4268 4.7998c-.584.5137-.8349 1.3013-.6543 2.0552.1797.7534.7588 1.3413 1.5108 1.5346zm6.2295 11.5049v-9.9025l10.3427 2.6603c.8923.2393 1.8433-.1536 2.3223-.936l2.0625-3.3902v16.4503l-13.8486-3.7339c-.51758-.1397-.8789-.6118-.8789-1.148zm15.7168-18.2842c2.4611 0 4.7332-.8026 6.5883-2.1471l5.7496 1.306-12.3365 2.9686-12.2018-2.9364 5.7414-1.2411c1.831 1.2873 4.0559 2.05 6.459 2.05zm15.7382 18.2842c0 .5366-.3613 1.0083-.8789 1.148l-13.8486 3.7339v-16.416l2.0459 3.3583c.4823.7934 1.4104 1.1703 2.3105.939l10.3711-2.6684zm5.708-13.4385-16.5771 4.2652c-.0391.0102-.083-.0069-.1035-.042l-3.2039-5.2595 14.8859-3.5822 5.0367 4.4564c.001 0-.0381.1617-.0381.1621zm-21.4462-25.3745c5.1084 0 9.2636 4.1563 9.2636 9.2647s-4.1552 9.2641-9.2636 9.2641-9.2647-4.1557-9.2647-9.2641 4.1563-9.2647 9.2647-9.2647zm-21.48048 25.2183 5.044-4.4606 14.87528 3.5793-3.1976 5.2558c-.0235.0352-.0616.0532-.1075.044l-16.5839-4.2662c-.0199-.1-.0502-.2523-.03028-.1523z"/><path d="m22.98679 15.0837c-.46558-.1731-.8721-.3876-1.2185-.6432l-.7529 1.6696c.3742.2923.8665.5385 1.478.7389.6115.2011 1.2541.3197 1.9301.3559v1.4919h1.3689v-1.5325c2.2459-.2793 3.1887-1.5708 3.1887-2.9153 0-.602-.1504-1.0882-.4522-1.4574-.6675-.8207-1.695-1.0958-2.7365-1.3348v-2.3267c.7116.0825 1.4089.3196 2.09382.7117l.68388-1.6829c-.7295-.4656-1.6562-.744-2.7777-.8353v-1.4914h-1.3689v1.5192c-2.2624.258-3.2165 1.5779-3.2165 2.942 0 1.8399 1.4275 2.4046 3.2165 2.8335v2.2854c-.4934-.0457-.97228-.1554-1.4367-.3286zm2.8056-1.6149c.5023.173.9845.4163.9845.9444 0 .5442-.4554.8266-.9845.9445zm-2.3824-3.2845c0-.5731.4585-.8813 1.0135-1.013v1.9435c-.5104-.1557-1.0135-.3993-1.0135-.9305z"/></g></svg>