<svg id="ICONS" enable-background="new 0 0 64 64" height="64" viewBox="0 0 64 64" width="64" xmlns="http://www.w3.org/2000/svg"><g><g style="fill:none;stroke:#202020;stroke-linecap:round;stroke-linejoin:round;stroke-miterlimit:10;stroke-width:2"><path d="m59 45c0 2.209-1.791 4-4 4h-46c-2.209 0-4-1.791-4-4v-26c0-2.209 1.791-4 4-4h46c2.209 0 4 1.791 4 4z"/><path d="m32 20v23"/><path d="m53 20v23"/><path d="m50 20v19"/><path d="m47 20v19"/><path d="m40 20v19"/><path d="m36 20v19"/><path d="m14 20v19"/><path d="m17 20v19"/><path d="m25 20v19"/><path d="m29 20v19"/><path d="m11 20v23"/><path d="m43 20h1v19h-1z"/><path d="m20 20h1v19h-1z"/></g><g fill="#202020"><path d="m14.97 41.993c0-.142.057-.246.171-.313l.777-.471c.043-.027.1-.041.171-.041.102 0 .195.027.28.083.084.055.127.124.127.206v3.747c0 .09-.045.16-.136.209-.09.049-.198.074-.324.074s-.234-.024-.324-.074c-.09-.049-.135-.119-.135-.209v-2.999l-.171.106c-.047.032-.097.047-.147.047-.083 0-.151-.038-.206-.112s-.083-.159-.083-.253z"/><path d="m18.11 45.202v-.575c0-.17.063-.34.189-.51s.278-.322.457-.457l.541-.405c.187-.135.345-.276.474-.423s.194-.29.194-.429c0-.111-.038-.209-.113-.295-.076-.085-.189-.128-.34-.128-.131 0-.239.037-.322.11s-.125.189-.125.349c0 .094-.043.175-.131.245s-.203.104-.346.104c-.271 0-.407-.159-.407-.477 0-.342.132-.616.396-.822s.574-.309.93-.309c.367 0 .688.107.964.323s.414.506.414.872c0 .238-.063.462-.189.673s-.278.387-.456.53c-.177.143-.356.274-.535.393-.18.119-.333.235-.46.348s-.191.217-.191.313v.053h1.553c.075 0 .14.04.196.118.055.078.083.17.083.277 0 .106-.027.2-.083.283s-.12.124-.194.124h-2.097c-.09 0-.18-.028-.268-.083s-.134-.123-.134-.202z"/><path d="m22.292 44.408c0-.129.032-.218.095-.265s.178-.071.344-.071c.186 0 .312.023.376.068.065.045.098.125.098.239 0 .228.174.342.521.342.199 0 .339-.041.419-.121s.12-.217.12-.409v-.112c0-.185-.048-.31-.144-.375-.096-.064-.235-.097-.419-.097-.175 0-.262-.118-.262-.353 0-.236.087-.354.263-.354.066 0 .122-.005.167-.015s.092-.029.14-.058c.049-.029.086-.08.111-.151.025-.072.038-.164.038-.276 0-.279-.145-.418-.433-.418-.148 0-.258.022-.328.066s-.105.121-.105.229c0 .107-.032.189-.095.246-.063.056-.176.083-.338.083-.206 0-.337-.024-.395-.073-.057-.049-.086-.148-.086-.298 0-.275.109-.519.328-.733.218-.214.558-.321 1.019-.321.877 0 1.316.358 1.316 1.074 0 .222-.041.421-.122.596s-.193.296-.335.362c.399.149.599.438.599.866v.112c0 .456-.136.792-.409 1.007s-.632.324-1.079.324c-.464 0-.815-.114-1.051-.341-.234-.229-.353-.486-.353-.773z"/><path d="m26.493 44.231c0-.058.016-.117.047-.175l1.361-2.643c.083-.156.21-.233.383-.233.094 0 .194.033.301.1.106.067.159.149.159.248 0 .027-.01.064-.029.112l-1.042 2.091h.506v-.44c0-.097.045-.17.136-.221.09-.05.198-.075.324-.075s.234.025.324.075c.09.051.135.124.135.221v.44h.253c.09 0 .16.04.209.12s.074.173.074.281c0 .1-.029.192-.088.275s-.124.125-.194.125h-.253v.657c0 .095-.045.168-.135.22s-.198.078-.324.078c-.125 0-.233-.026-.324-.078-.09-.051-.136-.125-.136-.22v-.657h-1.378c-.09 0-.164-.027-.221-.081-.06-.054-.088-.127-.088-.22z"/></g><g fill="#202020"><path d="m34.081 44.426c0-.153.039-.259.115-.318s.191-.088.345-.088c.185 0 .308.029.368.088s.091.143.091.253c0 .114.049.202.145.265.097.063.219.094.368.094.357 0 .536-.185.536-.554v-.112c0-.192-.046-.336-.139-.433-.092-.096-.221-.145-.386-.145h-.896c-.129 0-.221-.03-.273-.091s-.08-.15-.08-.268c0-.027.004-.084.013-.171l.158-1.484c.02-.188.075-.283.165-.283h1.88c.082 0 .146.039.194.118.047.079.07.173.07.283s-.023.204-.07.283c-.048.079-.112.118-.194.118h-1.29l-.06.789h.383c.44 0 .791.102 1.052.307.261.204.392.53.392.978v.112c0 .463-.132.805-.395 1.025s-.608.33-1.037.33c-.451 0-.807-.108-1.065-.324-.26-.216-.39-.473-.39-.772z"/><path d="m38.481 44.131v-1.561c0-.479.137-.831.41-1.055.272-.224.637-.335 1.092-.335.456 0 .802.114 1.037.342s.354.483.354.766c0 .138-.033.234-.1.289s-.177.083-.33.083c-.318 0-.478-.112-.478-.336 0-.106-.049-.189-.147-.25s-.22-.091-.365-.091c-.369 0-.554.196-.554.589v.53c.157-.173.402-.259.736-.259.373 0 .673.096.898.289s.339.509.339.949v.053c0 .479-.132.831-.395 1.055-.264.224-.612.335-1.049.335-.439 0-.791-.112-1.055-.335-.261-.227-.393-.578-.393-1.058zm.919.084c0 .4.177.6.53.6.35 0 .524-.2.524-.6v-.055c0-.408-.177-.612-.53-.612-.35 0-.524.186-.524.558z"/><path d="m42.812 42.376v-.913c0-.071.042-.136.124-.194.083-.059.175-.088.277-.088h2.091c.091 0 .18.029.269.088.088.059.132.124.132.194v.736c0 .138-.063.324-.188.56l-1.378 2.639c-.044.083-.13.124-.26.124-.149 0-.283-.045-.403-.135s-.18-.2-.18-.33c0-.051.014-.102.041-.153l1.449-2.51v-.412h-1.056v.395c0 .079-.047.146-.141.2-.095.055-.203.083-.324.083-.126 0-.232-.027-.321-.083-.088-.056-.132-.122-.132-.201z"/><path d="m47.095 44.316v-.07c0-.57.243-.937.73-1.101-.389-.137-.583-.445-.583-.924 0-.351.116-.612.351-.783.233-.172.551-.257.951-.257s.718.085.951.257c.233.171.351.433.351.783 0 .479-.194.788-.583.924.482.164.725.531.725 1.101v.07c0 .414-.132.718-.395.913-.264.195-.613.292-1.049.292-.437 0-.786-.097-1.052-.292-.264-.195-.397-.5-.397-.913zm.919-.104c0 .402.177.603.53.603.35 0 .524-.201.524-.603v-.132c0-.382-.175-.573-.524-.573-.354 0-.53.191-.53.573zm.112-1.865c0 .302.139.454.418.454.278 0 .418-.151.418-.454 0-.307-.14-.459-.418-.459-.279-.001-.418.152-.418.459z"/></g></g></svg>