<svg id="Layer_1" enable-background="new 0 0 50 50" height="512" viewBox="0 0 50 50" width="512" xmlns="http://www.w3.org/2000/svg"><g><path d="m2.8122 43.22075c.0038.1843.055.3115.1194.4346.1159.2228.3207.3952.5188.4724.0134.0052.0237.015.0374.0196l14.12992 4.7993c.09719.0331.20488.0479.30818.05.0056.0001.0103.0033.016.0033.0006 0 .0012-.0004.00182-.0004.00068 0 .00138.0004.00208.0004.1094 0 .2178-.0181.3213-.0533 2.88962-.9829-10.4675 3.5608 28.2598-9.6132.4062-.1377.6787-.5186.6787-.9468v-18.2114c0-.2305-.076-.4405-.2326-.631-.11628-.141-.3647-.2923-.4784-.3266l-13.4257-4.0503v-8.3535c0-.2404-.0859-.4486-.22919-.6253-.11372-.1395-.35011-.2879-.44862-.3215l-14.14838-4.8139c-.21-.0718-.43652-.0698-.64452 0l-14.126 4.8139c-.3207.1092-.6778.4737-.6778.9473.0014 3.3097.0104 33.0985.0147 36.3814 0 .0017-.001.0031-.001.0048.00001.0072.00401.0131.00411.0202zm1.9897-16.7997 12.14 4.1235v16.0602l-12.1328-4.121zm14.14 4.1189 12.127-4.1191v16.0658l-12.127 4.1188zm12.127-6.2634-12.1377 4.1225v-16.067l12.1377-4.1226zm-14.1377 4.1129-12.1299-4.118-.00658-16.0621 12.13648 4.1206zm16.14451 13.4008v-16.0995l12.12989-4.12v16.0996zm9.85489-21.5586-9.8617 3.3495v-6.3243zm-25.0102-17.1756 11.0421 3.757-11.0279 3.7455-11.035-3.7463z"/></g></svg>