<svg id="Layer_1" enable-background="new 0 0 50 50" height="512" viewBox="0 0 50 50" width="512" xmlns="http://www.w3.org/2000/svg"><g><path d="m3.21643 23.24154c.02539.03613.05273.0708.08203.10352l3.68994 4.08252h-4.86962c-.55273 0-1 .44775-1 1s.44727 1 1 1h6.67725l14.37744 15.90674c.97442 1.07801 2.66842 1.0739 3.63867.00049l14.01953-15.49902h7.0498c.55273 0 1-.44775 1-1s-.44727-1-1-1h-5.24072l4.06104-4.48975c.03027-.03271.05762-.06787.08301-.104 5.20909-7.57403.74192-18.48814-8.29395-19.3252-5.5293-.51563-10.61816 2.43262-13.07617 7.40283-.12012.24268-.31445.27881-.41992.27881-.10645 0-.30176-.03613-.42188-.27881-2.45215-4.9668-7.54199-7.91455-13.05957-7.40332-9.03742.83262-13.50933 11.7501-8.29688 19.32519zm22.11328 20.75146c-.18073.19865-.49356.19872-.67285 0l-13.16504-14.56542h4.6582c.36426 0 .69922-.19775.875-.51611l3.26074-5.89893 4.94141 13.28564c.13867.37109.48242.62598.87793.64941.01953.00146.04004.00195.05957.00195.37305 0 .7168-.20752.88867-.5415l6.03027-11.69189 1.59863 4.45703c.14258.39746.51953.6626.94141.6626h2.51147zm-13.63281-38.08544c4.66797-.43262 8.99707 2.07227 11.08301 6.29736.4248.85938 1.27344 1.39355 2.21484 1.39355.94043 0 1.78809-.53369 2.21289-1.39209 2.09082-4.229 6.40137-6.73486 11.09765-6.29834 7.58907.70412 11.10321 9.90889 6.86816 16.14648l-5.22925 5.78125h-3.61646l-2.1377-5.9585c-.13477-.375-.47852-.63428-.87598-.66064-.38574-.02588-.77148.18652-.9541.53955l-6.04687 11.72412-4.91209-13.20604c-.13672-.36621-.47363-.61963-.86328-.64844-.37891-.02783-.76074.17188-.94922.51318l-4.02832 7.28857h-5.87597l-4.85644-5.37305c-4.24655-6.25359-.70571-15.44836 6.86913-16.14696z"/></g></svg>