<svg id="Layer_1" enable-background="new 0 0 52 52" height="512" viewBox="0 0 52 52" width="512" xmlns="http://www.w3.org/2000/svg"><g><path d="m1 31.3c.1 5 4.1 9.1 9.2 9.1s9.2-4.2 9.2-9.2c0-.2-.1-.4-.2-.6l-7.5-18.4h10.7v28.9c-1.8.2-3.2 1.7-3.3 3.6h-9.5c-1.7 0-3.1 1.4-3.1 3.1s1.4 3.1 3.1 3.1h32.8c1.7 0 3.1-1.4 3.1-3.1s-1.4-3.1-3.1-3.1h-9.5c-.1-1.8-1.5-3.3-3.3-3.6v-28.8h10.7l-7.6 18.5c-.1.2-.1.4-.1.5.1 5 4.1 9.1 9.2 9.1 5 0 9.1-4 9.2-9v-.1c0-.2-.1-.4-.2-.6l-7.5-18.4h2.4c.6 0 1-.4 1-1s-.4-1-1-1h-15.4c2-2.3 1.7-5.6-.3-7.6-2.2-2.2-5.8-2.2-8 0-2.1 2.1-2.2 5.4-.3 7.6h-15.4c-.6 0-1 .4-1 1s.4 1 1 1h2.4c-8.1 19.8-7.7 18.5-7.7 19zm40.8 7.1c-3.6 0-6.6-2.7-7.1-6.2h14.2c-.5 3.5-3.5 6.2-7.1 6.2zm-6.7-8.2 6.7-16.3 6.7 16.3zm8.4 17.7c0 .6-.5 1.1-1.1 1.1h-32.8c-.6 0-1.1-.5-1.1-1.1s.5-1.1 1.1-1.1h32.8c.6 0 1.1.5 1.1 1.1zm-12.6-3.1h-9.8c.1-.9.8-1.6 1.7-1.6h6.3c1 0 1.7.7 1.8 1.6zm-3.3-3.6h-3.2v-28.9c.3 0 3.4 0 3.2 0zm-4.2-37.1c1.4-1.4 3.7-1.4 5.2 0 1.4 1.4 1.4 3.7 0 5.2-1.4 1.4-3.8 1.4-5.2 0-1.4-1.5-1.4-3.8 0-5.2zm-13.2 34.3c-3.6 0-6.6-2.7-7.1-6.2h14.2c-.5 3.5-3.5 6.2-7.1 6.2zm0-24.5 6.7 16.3h-13.4z"/></g></svg>