<svg id="Capa_1" enable-background="new 0 0 512 512" height="512" viewBox="0 0 512 512" width="512" xmlns="http://www.w3.org/2000/svg"><g><path d="m492.377 91.623c-15.544-5.736-32.795 2.216-38.531 17.76l-20.771 56.29-178.251-65.774c-25.907-9.559-54.658 3.693-64.217 29.6l-24.232 65.672c-5.736 15.544 2.216 32.795 17.76 38.53 15.544 5.736 32.795-2.216 38.531-17.76l20.771-56.29 56.534 20.861-94.771 265.24c-5.534 15.488 2.435 32.543 17.865 38.237 15.657 5.777 33.019-2.334 38.634-18.05l44.088-123.394 54.545 20.127-31.156 84.435c-5.736 15.544 2.216 32.795 17.76 38.53 15.544 5.736 32.795-2.216 38.531-17.76l34.618-93.817c9.559-25.907-3.693-54.658-29.6-64.217l-64.509-23.803 30.283-84.757 65.428 24.142c25.907 9.559 54.658-3.693 64.217-29.6l24.232-65.672c5.737-15.544-2.215-32.794-17.759-38.53z"/><circle cx="371.091" cy="69.5" r="45"/><g><path d="m15 153.285h112.553c8.284 0 15-6.716 15-15s-6.716-15-15-15h-112.553c-8.284 0-15 6.716-15 15s6.716 15 15 15z"/><path d="m15 243.715h95.724c8.284 0 15-6.716 15-15s-6.716-15-15-15h-95.724c-8.284 0-15 6.716-15 15 0 8.285 6.716 15 15 15z"/><path d="m191.101 303.715h-176.101c-8.284 0-15 6.716-15 15s6.716 15 15 15h176.101c8.284 0 15-6.716 15-15s-6.716-15-15-15z"/><path d="m158.05 393.715h-143.05c-8.284 0-15 6.716-15 15s6.716 15 15 15h143.05c8.284 0 15-6.716 15-15s-6.716-15-15-15z"/></g></g></svg>