<svg id="Bold" height="512" viewBox="0 0 24 24" width="512" xmlns="http://www.w3.org/2000/svg"><path d="m10.544 7h12a1.5 1.5 0 0 0 0-3h-12a1.5 1.5 0 0 0 0 3z"/><path d="m22.544 11h-12a1.5 1.5 0 0 0 0 3h12a1.5 1.5 0 0 0 0-3z"/><path d="m22.544 18h-12a1.5 1.5 0 0 0 0 3h12a1.5 1.5 0 0 0 0-3z"/><path d="m5.13 7a1 1 0 0 0 .707-1.707l-2.086-2.086a1 1 0 0 0 -1.414 0l-2.086 2.086a1 1 0 0 0 .707 1.707h.586v11h-.586a1 1 0 0 0 -.707 1.707l2.049 2.048a1 1 0 0 0 1.414 0l2.048-2.048a1 1 0 0 0 -.708-1.707h-.51v-11z"/></svg>