<svg fill="none" height="24" viewBox="0 0 24 24" width="24" xmlns="http://www.w3.org/2000/svg"><path clip-rule="evenodd" d="m4 3.5c0-.82843.67157-1.5 1.5-1.5h13c.8284 0 1.5.67157 1.5 1.5s-.6716 1.5-1.5 1.5h-5v9.5c0 .8284-.6716 1.5-1.5 1.5s-1.5-.6716-1.5-1.5v-9.5h-5c-.82843 0-1.5-.67157-1.5-1.5zm-.70711 16.2071 2 2c.39052.3905 1.02369.3905 1.41421 0 .39053-.3905.39053-1.0237 0-1.4142l-.29289-.2929h3.58577 5.00002 2.5858l-.2929.2929c-.3905.3905-.3905 1.0237 0 1.4142s1.0237.3905 1.4142 0l2-2c.3905-.3905.3905-1.0237 0-1.4142l-2-2c-.3905-.3905-1.0237-.3905-1.4142 0s-.3905 1.0237 0 1.4142l.2929.2929h-2.5858-5.00002-3.58577l.2929-.2929c.39053-.3905.39053-1.0237 0-1.4142-.39052-.3905-1.02369-.3905-1.41421 0l-2.00001 2c-.18753.1875-.29289.4419-.29289.7071s.10536.5196.29289.7071z" fill="#160b34" fill-rule="evenodd"/></svg>