<svg id="EDIT_TOOLS" viewBox="0 0 512 512" xmlns="http://www.w3.org/2000/svg" data-name="EDIT TOOLS"><path d="m118.75 450.32c38.02 38.66 86.19 61.68 136.97 61.68h.27.33 1.06c103.29-1.67 195.05-98.1 197.62-200.95.39-22.8-3.55-45.05-11.68-66.43-.04-.11-.09-.23-.13-.34-.49-3.32-42.35-97.11-172.52-236.61-.45-.62-.93-1.21-1.46-1.78-3.61-3.91-8.41-5.89-13.21-5.89-4.55 0-9.11 1.77-12.67 5.33-62.9 62.99-108.08 125.65-133.63 165.5-28.12 43.81-40.26 71.91-40.76 73.13-.09.22-.18.44-.26.66-8.05 21.18-12 43.22-11.69 65.81.68 51.32 23.41 100.68 61.76 139.88zm241.4-254.97c24.32 36.55 34.93 58.61 37.38 63.98l.96 2.46.04.09c5.88 15.57 8.74 31.77 8.47 48.17-.99 37.36-18.28 75.96-47.45 105.94-29.08 29.88-66.53 47.37-102.78 48.01-.15 0-.3 0-.46 0h-.25s-.09 0-.09 0h-.09s-.18 0-.18 0c-.08 0-.15 0-.23 0v-401.82c40.78 45.45 76.67 91.07 104.67 133.17z"/></svg>