<svg height="512" viewBox="0 0 64 64" width="512" xmlns="http://www.w3.org/2000/svg"><g id="GRAY"><g><path d="m39.348 36.244c-5.314-10.957-7.348-14.434-7.348-14.434s-2.034 3.477-7.348 14.434c-2.812 5.796-6.102 10.826-6.102 17.124 0 11.089 13.45 10.629 13.45 10.629s13.45.459 13.45-10.629c0-6.298-3.29-11.328-6.102-17.124z" fill="#999"/></g><g><path d="m59.835 13.34c-3.628-7.48-5.016-9.853-5.016-9.853s-1.388 2.374-5.016 9.853c-1.919 3.957-4.165 7.39-4.165 11.69 0 7.569 9.181 7.256 9.181 7.256s9.181.313 9.181-7.256c0-4.3-2.246-7.733-4.165-11.69z"/></g><g><path d="m14.198 13.34c-3.628-7.48-5.016-9.853-5.016-9.853s-1.389 2.374-5.017 9.853c-1.919 3.957-4.165 7.39-4.165 11.69 0 7.569 9.181 7.256 9.181 7.256s9.181.314 9.181-7.256c.001-4.3-2.245-7.733-4.164-11.69z" fill="#ccc"/></g></g></svg>