<?xml version="1.0" ?><svg id="Layer_1" style="enable-background:new 0 0 512 512;" version="1.1" viewBox="0 0 512 512" xml:space="preserve" xmlns="http://www.w3.org/2000/svg" xmlns:xlink="http://www.w3.org/1999/xlink"><style type="text/css">
	.st0{fill:#EF3F3B;}
	.st1{fill-rule:evenodd;clip-rule:evenodd;fill:#FFFFFF;}
</style><g><path class="st0" d="M512,397.1c0,63.5-51.5,114.9-114.9,114.9H114.9C51.5,512,0,460.5,0,397.1V114.9C0,51.5,51.5,0,114.9,0h282.2   C460.5,0,512,51.5,512,114.9V397.1z"/><path class="st1" d="M238.4,298.2c-0.2,0.8-0.5,1.5-0.6,2.1c-10.2,39.9-11.3,48.7-21.8,67.3c-5,8.8-10.6,17.2-16.8,25.1   c-0.7,0.9-1.4,2.1-2.8,1.8c-1.5-0.3-1.6-1.7-1.8-2.9c-1.7-12.1-2.6-24.3-2.2-36.5c0.5-15.9,2.5-21.4,23-107.8   c0.3-1.3,0-2.4-0.5-3.6c-4.9-13.3-5.9-26.7-1.6-40.4c9.3-29.5,42.7-31.7,48.6-7.4c3.6,15-5.9,34.7-13.2,63.8   c-6.1,24,22.2,41.1,46.4,23.6c22.3-16.2,30.9-54.9,29.3-82.3c-3.2-54.7-63.2-66.6-101.3-48.9c-43.7,20.2-53.6,74.3-33.9,99   c2.5,3.1,4.4,5.1,3.6,8.3c-1.3,5-2.4,9.9-3.8,14.9c-1,3.7-4.1,5-7.8,3.5c-7.3-2.9-13.3-7.6-18.2-13.7   c-16.7-20.7-21.5-61.7,0.6-96.4c24.5-38.5,70.1-54,111.8-49.3c49.7,5.7,81.2,39.6,87.1,78.2c2.7,17.6,0.7,60.9-23.9,91.5   c-28.4,35.2-74.3,37.5-95.5,15.9C241.3,302.1,240,300.2,238.4,298.2z"/></g></svg>