<svg xmlns="http://www.w3.org/2000/svg" version="1.1" xmlns:xlink="http://www.w3.org/1999/xlink" width="512" height="512" x="0" y="0" viewBox="0 0 36 36" style="enable-background:new 0 0 512 512" xml:space="preserve"><g transform="matrix(1.0699999999999992,0,0,1.0699999999999992,-1.2594311285018733,-1.2600000667571827)"><path d="M32.16 6.31c-1.67-1.68-3.9-2.6-6.27-2.6s-4.59.92-6.26 2.6L18 7.93l-1.62-1.62c-1.67-1.68-3.89-2.6-6.26-2.6s-4.6.92-6.27 2.6C.39 9.76.39 15.38 3.84 18.84L16.8 31.79c.32.32.74.5 1.19.5.45 0 .88-.18 1.19-.5l12.96-12.96c1.67-1.67 2.59-3.89 2.59-6.26s-.92-4.59-2.59-6.26zM31.1 17.77 18.14 30.73s-.1.06-.13.06c0 0-.09 0-.13-.06L4.92 17.78c-2.87-2.88-2.87-7.55 0-10.42C6.3 5.97 8.15 5.2 10.13 5.2s3.81.77 5.2 2.16l2.16 2.15c.29.29.77.29 1.06 0l2.16-2.15c1.38-1.39 3.23-2.16 5.2-2.16s3.82.77 5.21 2.16 2.15 3.24 2.15 5.2-.76 3.81-2.15 5.2z" fill="#000000" opacity="1" data-original="#000000"></path></g></svg>