<?xml version="1.0" standalone="no"?>
<!DOCTYPE svg PUBLIC "-//W3C//DTD SVG 20010904//EN"
 "http://www.w3.org/TR/2001/REC-SVG-20010904/DTD/svg10.dtd">
<svg version="1.0" xmlns="http://www.w3.org/2000/svg"
 width="600.000000pt" height="600.000000pt" viewBox="0 0 600.000000 600.000000"
 preserveAspectRatio="xMidYMid meet">

<g transform="translate(0.000000,600.000000) scale(0.100000,-0.100000)"
fill="#000000" stroke="none">
<path d="M2360 5000 l0 -560 -214 0 -213 0 -35 53 c-77 115 -233 241 -356 287
-119 45 -173 55 -302 55 -174 0 -298 -36 -432 -124 -176 -115 -286 -270 -346
-486 -16 -55 -17 -192 -17 -1585 0 -1664 -4 -1546 55 -1702 66 -178 260 -372
438 -438 119 -45 173 -55 302 -55 129 0 183 10 302 55 123 46 278 171 356 287
l35 53 1547 0 c1508 0 1549 0 1624 20 113 29 190 73 276 160 87 86 131 163
160 276 19 75 20 115 20 1344 0 1229 -1 1269 -20 1344 -29 113 -73 190 -160
276 -133 134 -258 180 -487 180 l-133 0 0 560 0 560 -1200 0 -1200 0 0 -560z
m2000 -200 l0 -360 -800 0 -800 0 0 360 0 360 800 0 800 0 0 -360z m-2956
-398 c91 -42 149 -100 194 -190 l37 -76 0 -1496 0 -1496 -37 -76 c-45 -91
-103 -147 -196 -191 -61 -29 -76 -32 -162 -32 -86 0 -101 3 -162 32 -93 44
-151 100 -196 191 l-37 76 0 1495 0 1496 32 67 c40 85 97 147 172 186 78 42
122 52 213 48 61 -3 92 -11 142 -34z m3659 -391 c21 -13 50 -42 65 -64 l27
-41 0 -1265 0 -1266 -24 -38 c-13 -21 -42 -50 -64 -65 l-41 -27 -1493 -3
-1493 -2 0 1400 0 1400 1493 -2 1492 -3 38 -24z"/>
<path d="M2360 3440 l0 -200 1200 0 1200 0 0 200 0 200 -1200 0 -1200 0 0
-200z"/>
<path d="M2360 2640 l0 -200 200 0 200 0 0 200 0 200 -200 0 -200 0 0 -200z"/>
<path d="M3360 2640 l0 -200 200 0 200 0 0 200 0 200 -200 0 -200 0 0 -200z"/>
<path d="M4360 2640 l0 -200 200 0 200 0 0 200 0 200 -200 0 -200 0 0 -200z"/>
<path d="M2360 1840 l0 -200 200 0 200 0 0 200 0 200 -200 0 -200 0 0 -200z"/>
<path d="M3360 1840 l0 -200 200 0 200 0 0 200 0 200 -200 0 -200 0 0 -200z"/>
<path d="M4360 1840 l0 -200 200 0 200 0 0 200 0 200 -200 0 -200 0 0 -200z"/>
</g>
</svg>
