<svg id="Capa_1" enable-background="new 0 0 512 512" height="512" viewBox="0 0 512 512" width="512" xmlns="http://www.w3.org/2000/svg"><g><path d="m166 361h246.577c20.687 0 38.639-14.017 43.641-34.023l55.319-217.275c1.143-4.487.148-9.251-2.693-12.907-2.843-3.656-7.214-5.795-11.844-5.795h-394.886l-8.868-28.409c-5.898-18.896-23.161-31.591-42.955-31.591h-35.291c-8.284 0-15 6.716-15 15s6.715 15 15 15h35.291c6.598 0 12.352 4.232 14.318 10.53 4.468 14.313 77.534 248.379 82.323 263.722-15.305 7.192-25.932 22.749-25.932 40.748 0 24.813 20.187 44.99 45 44.99h17.58c-1.665 4.695-2.58 9.752-2.58 15.01 0 24.813 20.187 45 45 45s45-20.187 45-45c0-5.258-.915-10.305-2.58-15.01h65.161c-1.665 4.705-2.58 9.752-2.58 15.01 0 24.813 20.187 45 45 45s45-20.187 45-45c0-5.258-.915-10.305-2.58-15h17.579c8.284 0 15-6.716 15-15s-6.716-15-15-15h-270c-8.271 0-15-6.729-15-15s6.729-15 15-15zm75 75c0 8.271-6.729 15-15 15s-15-6.729-15-15 6.729-15 15-15 15 6.729 15 15zm150 0c0 8.271-6.729 15-15 15s-15-6.729-15-15 6.729-15 15-15 15 6.729 15 15zm-46.992-195-11.25 90h-63.516l-11.25-90zm-89.766-30-11.25-90h116.016l-11.25 90zm-15.234 120h-61.977l-28.094-90h78.821zm188.121-11.362c-1.672 6.69-7.657 11.362-14.552 11.362h-49.585l11.25-90h72.908zm27.659-108.638h-76.797l11.25-90h88.461zm-242.03-90 11.25 90h-84.436l-28.094-90z"/></g></svg>